  0
SECTION
  2
HEADER
  9
$ACADVER
  1
AC1014
  9
$HANDSEED
  5
FFFF
  9
$MEASUREMENT
 70
     1
  0
ENDSEC
  0
SECTION
  2
TABLES
  0
TABLE
  2
VPORT
  5
8
330
0
100
AcDbSymbolTable
 70
     4
  0
VPORT
  5
2E
330
8
100
AcDbSymbolTableRecord
100
AcDbViewportTableRecord
  2
*ACTIVE
 70
     0
 10
0.0
 20
0.0
 11
1.0
 21
1.0
 12
210.0
 22
148.5
 13
0.0
 23
0.0
 14
10.0
 24
10.0
 15
10.0
 25
10.0
 16
0.0
 26
0.0
 36
1.0
 17
0.0
 27
0.0
 37
0.0
 40
341.0
 41
1.24
 42
50.0
 43
0.0
 44
0.0
 50
0.0
 51
0.0
 71
     0
 72
   100
 73
     1
 74
     3
 75
     0
 76
     0
 77
     0
 78
     0
  0
ENDTAB
  0
TABLE
  2
LTYPE
  5
5
330
0
100
AcDbSymbolTable
 70
     1
  0
LTYPE
  5
14
330
5
100
AcDbSymbolTableRecord
100
AcDbLinetypeTableRecord
  2
BYBLOCK
 70
     0
  3

 72
    65
 73
     0
 40
0.0
  0
LTYPE
  5
15
330
5
100
AcDbSymbolTableRecord
100
AcDbLinetypeTableRecord
  2
BYLAYER
 70
     0
  3

 72
    65
 73
     0
 40
0.0
  0
LTYPE
  5
16
330
5
100
AcDbSymbolTableRecord
100
AcDbLinetypeTableRecord
  2
CONTINUOUS
 70
     0
  3
Solid line
 72
    65
 73
     0
 40
0.0
  0
ENDTAB
  0
TABLE
  2
LAYER
  5
2
100
AcDbSymbolTable
 70
2
  0
LAYER
  5
50
100
AcDbSymbolTableRecord
100
AcDbLayerTableRecord
  2
0
 70
0
  6
CONTINUOUS
  0
LAYER
  5
51
100
AcDbSymbolTableRecord
100
AcDbLayerTableRecord
  2
Layer_1
 70
0
  6
CONTINUOUS
  0
ENDTAB
  0
TABLE
  2
STYLE
  5
3
330
0
100
AcDbSymbolTable
 70
     1
  0
STYLE
  5
11
330
3
100
AcDbSymbolTableRecord
100
AcDbTextStyleTableRecord
  2
STANDARD
 70
     0
 40
0.0
 41
1.0
 50
0.0
 71
     0
 42
2.5
  3
txt
  4

  0
ENDTAB
  0
TABLE
  2
VIEW
  5
6
330
0
100
AcDbSymbolTable
 70
     0
  0
ENDTAB
  0
TABLE
  2
UCS
  5
7
330
0
100
AcDbSymbolTable
 70
     0
  0
ENDTAB
  0
TABLE
  2
APPID
  5
9
330
0
100
AcDbSymbolTable
 70
     2
  0
APPID
  5
12
330
9
100
AcDbSymbolTableRecord
100
AcDbRegAppTableRecord
  2
ACAD
 70
     0
  0
ENDTAB
  0
TABLE
  2
DIMSTYLE
  5
A
330
0
100
AcDbSymbolTable
 70
     1
  0
DIMSTYLE
105
27
330
A
100
AcDbSymbolTableRecord
100
AcDbDimStyleTableRecord
  2
ISO-25
 70
     0
  3

  4

  5

  6

  7

 40
1.0
 41
2.5
 42
0.625
 43
3.75
 44
1.25
 45
0.0
 46
0.0
 47
0.0
 48
0.0
140
2.5
141
2.5
142
0.0
143
0.03937007874016
144
1.0
145
0.0
146
1.0
147
0.625
 71
     0
 72
     0
 73
     0
 74
     0
 75
     0
 76
     0
 77
     1
 78
     8
170
     0
171
     3
172
     1
173
     0
174
     0
175
     0
176
     0
177
     0
178
     0
270
     2
271
     2
272
     2
273
     2
274
     3
340
11
275
     0
280
     0
281
     0
282
     0
283
     0
284
     8
285
     0
286
     0
287
     3
288
     0
  0
ENDTAB
  0
TABLE
  2
BLOCK_RECORD
  5
1
330
0
100
AcDbSymbolTable
 70
     1
  0
BLOCK_RECORD
  5
1F
330
1
100
AcDbSymbolTableRecord
100
AcDbBlockTableRecord
  2
*MODEL_SPACE
  0
BLOCK_RECORD
  5
1B
330
1
100
AcDbSymbolTableRecord
100
AcDbBlockTableRecord
  2
*PAPER_SPACE
  0
ENDTAB
  0
ENDSEC
  0
SECTION
  2
BLOCKS
  0
BLOCK
  5
20
330
1F
100
AcDbEntity
  8
0
100
AcDbBlockBegin
  2
*MODEL_SPACE
 70
     0
 10
0.0
 20
0.0
 30
0.0
  3
*MODEL_SPACE
  1

  0
ENDBLK
  5
21
330
1F
100
AcDbEntity
  8
0
100
AcDbBlockEnd
  0
BLOCK
  5
1C
330
1B
100
AcDbEntity
 67
     1
  8
0
100
AcDbBlockBegin
  2
*PAPER_SPACE
  1

  0
ENDBLK
  5
1D
330
1B
100
AcDbEntity
 67
     1
  8
0
100
AcDbBlockEnd
  0
ENDSEC
  0
SECTION
  2
ENTITIES
  0
LWPOLYLINE
  5
100
100
AcDbEntity
  8
Layer_1
 62
7
100
AcDbPolyline
 90
4
 70
1
 10
27.970238
 20
325.809526
 30
0.0
 10
327.970238
 20
325.809526
 30
0.0
 10
327.970238
 20
25.809526
 30
0.0
 10
27.970238
 20
25.809526
 30
0.0
  0
LWPOLYLINE
  5
101
100
AcDbEntity
  8
Layer_1
 62
7
100
AcDbPolyline
 90
1
 70
1
 10
177.270810
 20
276.130960
 30
0.0
  0
LWPOLYLINE
  5
102
100
AcDbEntity
  8
Layer_1
 62
7
100
AcDbPolyline
 90
5
 70
1
 10
191.368023
 20
127.901505
 30
0.0
 10
131.676575
 20
148.529589
 30
0.0
 10
133.659241
 20
209.423340
 30
0.0
 10
194.576045
 20
226.429670
 30
0.0
 10
230.242025
 20
176.046407
 30
0.0
  0
SPLINE
  5
103
100
AcDbEntity
  8
Layer_1
 62
7
100
AcDbSpline
 70
0
 71
3
 72
25
 73
21
 74
19
 40
0.000000
 40
0.000000
 40
0.000000
 40
0.000000
 40
39.251742
 40
77.804517
 40
117.056260
 40
156.308002
 40
194.860777
 40
234.112520
 40
273.364262
 40
311.917037
 40
351.168779
 40
390.420522
 40
428.973297
 40
468.225039
 40
494.402527
 40
520.363387
 40
546.540875
 40
572.718364
 40
598.679224
 40
624.856712
 40
624.856712
 40
624.856712
 40
624.856712
 10
177.270810
 20
276.130960
 30
0.0
 10
164.102415
 20
274.611446
 30
0.0
 10
138.000119
 20
271.599477
 30
0.0
 10
104.736649
 20
248.494239
 30
0.0
 10
82.448407
 20
215.458374
 30
0.0
 10
74.680163
 20
176.105804
 30
0.0
 10
82.484877
 20
136.885774
 30
0.0
 10
104.696879
 20
103.556077
 30
0.0
 10
138.022040
 20
81.345216
 30
0.0
 10
177.258882
 20
73.540487
 30
0.0
 10
216.547825
 20
81.307650
 30
0.0
 10
249.820661
 20
103.600219
 30
0.0
 10
272.051623
 20
136.847644
 30
0.0
 10
279.015219
 20
171.786058
 30
0.0
 10
274.967174
 20
202.306833
 30
0.0
 10
264.867280
 20
226.698157
 30
0.0
 10
248.798192
 20
247.680340
 30
0.0
 10
227.842396
 20
263.644192
 30
0.0
 10
203.450873
 20
274.136576
 30
0.0
 10
186.021636
 20
275.464326
 30
0.0
 10
177.270810
 20
276.130960
 30
0.0
 11
177.270810
 21
276.130960
 31
0.0
 11
138.781856
 21
268.430332
 31
0.0
 11
106.726395
 21
247.011557
 31
0.0
 11
84.882857
 21
214.399303
 31
0.0
 11
77.268224
 21
175.893243
 31
0.0
 11
84.789498
 21
138.081249
 31
0.0
 11
106.560132
 21
105.420282
 31
0.0
 11
139.221099
 21
83.649648
 31
0.0
 11
177.033093
 21
76.128374
 31
0.0
 11
215.539153
 21
83.743007
 31
0.0
 11
248.151407
 21
105.586545
 31
0.0
 11
269.570182
 21
137.642006
 31
0.0
 11
277.270810
 21
176.130960
 31
0.0
 11
273.844757
 21
202.083283
 31
0.0
 11
263.909966
 21
226.067990
 31
0.0
 11
247.981488
 21
246.841638
 31
0.0
 11
227.207840
 21
262.770116
 31
0.0
 11
203.223133
 21
272.704907
 31
0.0
 11
177.270810
 21
276.130960
 31
0.0
  0
SPLINE
  5
104
100
AcDbEntity
  8
Layer_1
 62
7
100
AcDbSpline
 70
0
 71
3
 72
10
 73
6
 74
4
 40
0.000000
 40
0.000000
 40
0.000000
 40
0.000000
 40
2.423604
 40
4.688357
 40
7.023383
 40
7.023383
 40
7.023383
 40
7.023383
 10
92.826175
 20
298.078125
 30
0.0
 10
92.016084
 20
298.021915
 30
0.0
 10
90.448999
 20
297.913179
 30
0.0
 10
88.257994
 20
296.899974
 30
0.0
 10
87.207236
 20
295.769291
 30
0.0
 10
86.673831
 20
295.195313
 30
0.0
 11
92.826175
 21
298.078125
 31
0.0
 11
90.423831
 21
297.757813
 31
0.0
 11
88.373050
 21
296.796875
 31
0.0
 11
86.673831
 21
295.195313
 31
0.0
  0
SPLINE
  5
105
100
AcDbEntity
  8
Layer_1
 62
7
100
AcDbSpline
 70
0
 71
3
 72
13
 73
9
 74
7
 40
0.000000
 40
0.000000
 40
0.000000
 40
0.000000
 40
2.495597
 40
5.221624
 40
8.315883
 40
11.400409
 40
14.120806
 40
16.614717
 40
16.614717
 40
16.614717
 40
16.614717
 10
86.673831
 20
295.195313
 30
0.0
 10
86.214207
 20
294.496090
 30
0.0
 10
85.252519
 20
293.033080
 30
0.0
 10
84.551378
 20
290.308305
 30
0.0
 10
84.329114
 20
287.341153
 30
0.0
 10
84.551398
 20
284.375769
 30
0.0
 10
85.253440
 20
281.657209
 30
0.0
 10
86.214279
 20
280.196621
 30
0.0
 10
86.673831
 20
279.498048
 30
0.0
 11
86.673831
 21
295.195313
 31
0.0
 11
85.414065
 21
293.041016
 31
0.0
 11
84.658206
 21
290.421875
 31
0.0
 11
84.406253
 21
287.337891
 31
0.0
 11
84.658206
 21
284.263672
 31
0.0
 11
85.414065
 21
281.650391
 31
0.0
 11
86.673831
 21
279.498048
 31
0.0
  0
SPLINE
  5
106
100
AcDbEntity
  8
Layer_1
 62
7
100
AcDbSpline
 70
0
 71
3
 72
13
 73
9
 74
7
 40
0.000000
 40
0.000000
 40
0.000000
 40
0.000000
 40
2.335026
 40
4.599779
 40
7.023383
 40
9.443115
 40
11.697261
 40
14.018113
 40
14.018113
 40
14.018113
 40
14.018113
 10
86.673831
 20
279.498048
 30
0.0
 10
87.207236
 20
278.922024
 30
0.0
 10
88.257993
 20
277.787313
 30
0.0
 10
90.449003
 20
276.804306
 30
0.0
 10
92.824863
 20
276.517703
 30
0.0
 10
95.197280
 20
276.803228
 30
0.0
 10
97.378917
 20
277.786243
 30
0.0
 10
98.416836
 20
278.921927
 30
0.0
 10
98.943362
 20
279.498048
 30
0.0
 11
86.673831
 21
279.498048
 31
0.0
 11
88.373050
 21
277.896485
 31
0.0
 11
90.423831
 21
276.935548
 31
0.0
 11
92.826175
 21
276.615235
 31
0.0
 11
95.224612
 21
276.935548
 31
0.0
 11
97.263675
 21
277.896485
 31
0.0
 11
98.943362
 21
279.498048
 31
0.0
  0
SPLINE
  5
107
100
AcDbEntity
  8
Layer_1
 62
7
100
AcDbSpline
 70
0
 71
3
 72
13
 73
9
 74
7
 40
0.000000
 40
0.000000
 40
0.000000
 40
0.000000
 40
2.493911
 40
5.214308
 40
8.298834
 40
11.393093
 40
14.119120
 40
16.614717
 40
16.614717
 40
16.614717
 40
16.614717
 10
98.943362
 20
279.498048
 30
0.0
 10
99.402914
 20
280.196621
 30
0.0
 10
100.363753
 20
281.657209
 30
0.0
 10
101.065795
 20
284.375769
 30
0.0
 10
101.288079
 20
287.341153
 30
0.0
 10
101.065815
 20
290.308305
 30
0.0
 10
100.364674
 20
293.033080
 30
0.0
 10
99.402986
 20
294.496090
 30
0.0
 10
98.943362
 20
295.195313
 30
0.0
 11
98.943362
 21
279.498048
 31
0.0
 11
100.203128
 21
281.650391
 31
0.0
 11
100.958987
 21
284.263672
 31
0.0
 11
101.210940
 21
287.337891
 31
0.0
 11
100.958987
 21
290.421875
 31
0.0
 11
100.203128
 21
293.041016
 31
0.0
 11
98.943362
 21
295.195313
 31
0.0
  0
LWPOLYLINE
  5
108
100
AcDbEntity
  8
Layer_1
 62
7
100
AcDbPolyline
 90
9
 70
1
 10
58.531253
 20
300.486328
 30
0.0
 10
62.345706
 20
300.486328
 30
0.0
 10
69.623050
 20
289.693360
 30
0.0
 10
76.847659
 20
300.486328
 30
0.0
 10
80.662112
 20
300.486328
 30
0.0
 10
71.380862
 20
286.740235
 30
0.0
 10
71.380862
 20
274.242188
 30
0.0
 10
67.812503
 20
274.242188
 30
0.0
 10
67.812503
 20
286.740235
 30
0.0
  0
SPLINE
  5
109
100
AcDbEntity
  8
Layer_1
 62
7
100
AcDbSpline
 70
0
 71
3
 72
10
 73
6
 74
4
 40
0.000000
 40
0.000000
 40
0.000000
 40
0.000000
 40
2.320851
 40
4.574998
 40
6.994729
 40
6.994729
 40
6.994729
 40
6.994729
 10
98.943362
 20
295.195313
 30
0.0
 10
98.416836
 20
295.769409
 30
0.0
 10
97.378918
 20
296.901102
 30
0.0
 10
95.197276
 20
297.914098
 30
0.0
 10
93.634991
 20
298.022173
 30
0.0
 10
92.826175
 20
298.078125
 30
0.0
 11
98.943362
 21
295.195313
 31
0.0
 11
97.263675
 21
296.796875
 31
0.0
 11
95.224612
 21
297.757813
 31
0.0
 11
92.826175
 21
298.078125
 31
0.0
  0
SPLINE
  5
10a
100
AcDbEntity
  8
Layer_1
 62
7
100
AcDbSpline
 70
0
 71
3
 72
10
 73
6
 74
4
 40
0.000000
 40
0.000000
 40
0.000000
 40
0.000000
 40
3.458236
 40
6.648905
 40
9.849611
 40
9.849611
 40
9.849611
 40
9.849611
 10
92.826175
 20
300.960938
 30
0.0
 10
93.980876
 20
300.888729
 30
0.0
 10
96.200938
 20
300.749898
 30
0.0
 10
99.322642
 20
299.473783
 30
0.0
 10
100.873662
 20
297.993338
 30
0.0
 10
101.650390
 20
297.251953
 30
0.0
 11
92.826175
 21
300.960938
 31
0.0
 11
96.259768
 21
300.548829
 31
0.0
 11
99.201173
 21
299.312500
 31
0.0
 11
101.650390
 21
297.251953
 31
0.0
  0
SPLINE
  5
10b
100
AcDbEntity
  8
Layer_1
 62
7
100
AcDbSpline
 70
0
 71
3
 72
13
 73
9
 74
7
 40
0.000000
 40
0.000000
 40
0.000000
 40
0.000000
 40
3.300040
 40
6.783486
 40
10.668067
 40
14.544870
 40
18.028316
 40
21.334851
 40
21.334851
 40
21.334851
 40
21.334851
 10
101.650390
 20
297.251953
 30
0.0
 10
102.317786
 20
296.368273
 30
0.0
 10
103.689671
 20
294.551800
 30
0.0
 10
104.742424
 20
291.089443
 30
0.0
 10
105.067251
 20
287.340521
 30
0.0
 10
104.742019
 20
283.591382
 30
0.0
 10
103.687824
 20
280.130473
 30
0.0
 10
102.317635
 20
278.310235
 30
0.0
 10
101.650390
 20
277.423829
 30
0.0
 11
101.650390
 21
297.251953
 31
0.0
 11
103.486329
 21
294.509766
 31
0.0
 11
104.587892
 21
291.205078
 31
0.0
 11
104.955080
 21
287.337891
 31
0.0
 11
104.587892
 21
283.478516
 31
0.0
 11
103.486329
 21
280.173829
 31
0.0
 11
101.650390
 21
277.423829
 31
0.0
  0
SPLINE
  5
10c
100
AcDbEntity
  8
Layer_1
 62
7
100
AcDbSpline
 70
0
 71
3
 72
13
 73
9
 74
7
 40
0.000000
 40
0.000000
 40
0.000000
 40
0.000000
 40
3.194427
 40
6.382831
 40
9.840835
 40
13.310476
 40
16.509694
 40
19.713117
 40
19.713117
 40
19.713117
 40
19.713117
 10
101.650390
 20
277.423829
 30
0.0
 10
100.873361
 20
276.683378
 30
0.0
 10
99.320768
 20
275.203873
 30
0.0
 10
96.199893
 20
273.972760
 30
0.0
 10
92.822263
 20
273.607297
 30
0.0
 10
89.441179
 20
273.973078
 30
0.0
 10
86.308996
 20
275.203229
 30
0.0
 10
84.747874
 20
276.683305
 30
0.0
 10
83.966800
 20
277.423829
 30
0.0
 11
101.650390
 21
277.423829
 31
0.0
 11
99.201173
 21
275.373048
 31
0.0
 11
96.259768
 21
274.142579
 31
0.0
 11
92.826175
 21
273.732423
 31
0.0
 11
89.380862
 21
274.142579
 31
0.0
 11
86.427737
 21
275.373048
 31
0.0
 11
83.966800
 21
277.423829
 31
0.0
  0
SPLINE
  5
10d
100
AcDbEntity
  8
Layer_1
 62
7
100
AcDbSpline
 70
0
 71
3
 72
13
 73
9
 74
7
 40
0.000000
 40
0.000000
 40
0.000000
 40
0.000000
 40
3.300039
 40
6.783486
 40
10.668066
 40
14.552646
 40
18.036093
 40
21.336132
 40
21.336132
 40
21.336132
 40
21.336132
 10
83.966800
 20
277.423829
 30
0.0
 10
83.299410
 20
278.307510
 30
0.0
 10
81.927537
 20
280.123985
 30
0.0
 10
80.874693
 20
283.586330
 30
0.0
 10
80.550035
 20
287.337891
 30
0.0
 10
80.874693
 20
291.089452
 30
0.0
 10
81.927537
 20
294.551797
 30
0.0
 10
83.299410
 20
296.368272
 30
0.0
 10
83.966800
 20
297.251953
 30
0.0
 11
83.966800
 21
277.423829
 31
0.0
 11
82.130862
 21
280.166016
 31
0.0
 11
81.029300
 21
283.470704
 31
0.0
 11
80.662112
 21
287.337891
 31
0.0
 11
81.029300
 21
291.205078
 31
0.0
 11
82.130862
 21
294.509766
 31
0.0
 11
83.966800
 21
297.251953
 31
0.0
  0
LWPOLYLINE
  5
10e
100
AcDbEntity
  8
Layer_1
 62
7
100
AcDbPolyline
 90
1
 70
1
 10
92.826175
 20
298.078125
 30
0.0
  0
LWPOLYLINE
  5
10f
100
AcDbEntity
  8
Layer_1
 62
7
100
AcDbPolyline
 90
1
 70
1
 10
92.826175
 20
300.960938
 30
0.0
  0
SPLINE
  5
110
100
AcDbEntity
  8
Layer_1
 62
7
100
AcDbSpline
 70
0
 71
3
 72
10
 73
6
 74
4
 40
0.000000
 40
0.000000
 40
0.000000
 40
0.000000
 40
3.209683
 40
6.411160
 40
9.881033
 40
9.881033
 40
9.881033
 40
9.881033
 10
83.966800
 20
297.251953
 30
0.0
 10
84.747574
 20
297.993398
 30
0.0
 10
86.307126
 20
299.474391
 30
0.0
 10
89.440125
 20
300.749787
 30
0.0
 10
91.667620
 20
300.888691
 30
0.0
 10
92.826175
 20
300.960938
 30
0.0
 11
83.966800
 21
297.251953
 31
0.0
 11
86.427737
 21
299.312500
 31
0.0
 11
89.380862
 21
300.548829
 31
0.0
 11
92.826175
 21
300.960938
 31
0.0
  0
SPLINE
  5
111
100
AcDbEntity
  8
Layer_1
 62
7
100
AcDbSpline
 70
0
 71
3
 72
10
 73
6
 74
4
 40
0.000000
 40
0.000000
 40
0.000000
 40
0.000000
 40
2.556435
 40
4.646885
 40
6.374184
 40
6.374184
 40
6.374184
 40
6.374184
 10
113.673830
 20
284.542969
 30
0.0
 10
113.703123
 20
283.692501
 30
0.0
 10
113.756371
 20
282.146586
 30
0.0
 10
114.201243
 20
280.028867
 30
0.0
 10
114.891032
 20
278.949353
 30
0.0
 10
115.203120
 20
278.460938
 30
0.0
 11
113.673830
 21
284.542969
 31
0.0
 11
113.843751
 21
281.992188
 31
0.0
 11
114.353514
 21
279.964844
 31
0.0
 11
115.203120
 21
278.460938
 31
0.0
  0
SPLINE
  5
112
100
AcDbEntity
  8
Layer_1
 62
7
100
AcDbSpline
 70
0
 71
3
 72
13
 73
9
 74
7
 40
0.000000
 40
0.000000
 40
0.000000
 40
0.000000
 40
1.601713
 40
3.364882
 40
5.449217
 40
7.523828
 40
9.281503
 40
10.881715
 40
10.881715
 40
10.881715
 40
10.881715
 10
115.203120
 20
278.460938
 30
0.0
 10
115.592237
 20
278.086653
 30
0.0
 10
116.409694
 20
277.300355
 30
0.0
 10
118.184651
 20
276.723587
 30
0.0
 10
120.156884
 20
276.556556
 30
0.0
 10
122.127500
 20
276.723592
 30
0.0
 10
123.895998
 20
277.301530
 30
0.0
 10
124.711148
 20
278.086742
 30
0.0
 10
125.099610
 20
278.460938
 30
0.0
 11
115.203120
 21
278.460938
 31
0.0
 11
116.433591
 21
277.435547
 31
0.0
 11
118.085938
 21
276.820313
 31
0.0
 11
120.160160
 21
276.615235
 31
0.0
 11
122.224610
 21
276.820313
 31
0.0
 11
123.871093
 21
277.435547
 31
0.0
 11
125.099610
 21
278.460938
 31
0.0
  0
LWPOLYLINE
  5
113
100
AcDbEntity
  8
Layer_1
 62
7
100
AcDbPolyline
 90
3
 70
0
 10
110.105470
 20
300.486328
 30
0.0
 10
113.673830
 20
300.486328
 30
0.0
 10
113.673830
 20
284.542969
 30
0.0
  0
SPLINE
  5
114
100
AcDbEntity
  8
Layer_1
 62
7
100
AcDbSpline
 70
0
 71
3
 72
10
 73
6
 74
4
 40
0.000000
 40
0.000000
 40
0.000000
 40
0.000000
 40
1.727302
 40
3.817753
 40
6.374188
 40
6.374188
 40
6.374188
 40
6.374188
 10
125.099610
 20
278.460938
 30
0.0
 10
125.411700
 20
278.949353
 30
0.0
 10
126.101493
 20
280.028866
 30
0.0
 10
126.546369
 20
282.146586
 30
0.0
 10
126.599616
 20
283.692500
 30
0.0
 10
126.628910
 20
284.542969
 30
0.0
 11
125.099610
 21
278.460938
 31
0.0
 11
125.949221
 21
279.964844
 31
0.0
 11
126.458988
 21
281.992188
 31
0.0
 11
126.628910
 21
284.542969
 31
0.0
  0
SPLINE
  5
115
100
AcDbEntity
  8
Layer_1
 62
7
100
AcDbSpline
 70
0
 71
3
 72
10
 73
6
 74
4
 40
0.000000
 40
0.000000
 40
0.000000
 40
0.000000
 40
3.155313
 40
5.875388
 40
8.346682
 40
8.346682
 40
8.346682
 40
8.346682
 10
130.197260
 20
284.103516
 30
0.0
 10
130.149253
 20
283.052432
 30
0.0
 10
130.059862
 20
281.095250
 30
0.0
 10
129.247304
 20
278.367413
 30
0.0
 10
128.164091
 20
277.001697
 30
0.0
 10
127.648440
 20
276.351563
 30
0.0
 11
130.197260
 21
284.103516
 31
0.0
 11
129.914058
 21
280.960938
 31
0.0
 11
129.064451
 21
278.376954
 31
0.0
 11
127.648440
 21
276.351563
 31
0.0
  0
SPLINE
  5
116
100
AcDbEntity
  8
Layer_1
 62
7
100
AcDbSpline
 70
0
 71
3
 72
13
 73
9
 74
7
 40
0.000000
 40
0.000000
 40
0.000000
 40
0.000000
 40
2.438693
 40
5.083063
 40
8.132138
 40
11.192880
 40
13.848315
 40
16.296423
 40
16.296423
 40
16.296423
 40
16.296423
 10
127.648440
 20
276.351563
 30
0.0
 10
127.022967
 20
275.821185
 30
0.0
 10
125.719269
 20
274.715698
 30
0.0
 10
123.073253
 20
273.892741
 30
0.0
 10
120.156269
 20
273.646487
 30
0.0
 10
117.235617
 20
273.893061
 30
0.0
 10
114.578572
 20
274.715422
 30
0.0
 10
113.266233
 20
275.821156
 30
0.0
 10
112.636720
 20
276.351563
 30
0.0
 11
127.648440
 21
276.351563
 31
0.0
 11
125.691409
 21
274.896485
 31
0.0
 11
123.195316
 21
274.023439
 31
0.0
 11
120.160160
 21
273.732423
 31
0.0
 11
117.113284
 21
274.023439
 31
0.0
 11
114.605471
 21
274.896485
 31
0.0
 11
112.636720
 21
276.351563
 31
0.0
  0
LWPOLYLINE
  5
117
100
AcDbEntity
  8
Layer_1
 62
7
100
AcDbPolyline
 90
4
 70
0
 10
126.628910
 20
284.542969
 30
0.0
 10
126.628910
 20
300.486328
 30
0.0
 10
130.197260
 20
300.486328
 30
0.0
 10
130.197260
 20
284.103516
 30
0.0
  0
SPLINE
  5
118
100
AcDbEntity
  8
Layer_1
 62
7
100
AcDbSpline
 70
0
 71
3
 72
10
 73
6
 74
4
 40
0.000000
 40
0.000000
 40
0.000000
 40
0.000000
 40
2.465714
 40
5.183965
 40
8.339104
 40
8.339104
 40
8.339104
 40
8.339104
 10
112.636720
 20
276.351563
 30
0.0
 10
112.124537
 20
277.001998
 30
0.0
 10
111.047715
 20
278.369485
 30
0.0
 10
110.241974
 20
281.096053
 30
0.0
 10
110.153173
 20
283.052518
 30
0.0
 10
110.105470
 20
284.103516
 30
0.0
 11
112.636720
 21
276.351563
 31
0.0
 11
111.230470
 21
278.376954
 31
0.0
 11
110.386720
 21
280.960938
 31
0.0
 11
110.105470
 21
284.103516
 31
0.0
  0
SPLINE
  5
119
100
AcDbEntity
  8
Layer_1
 62
7
100
AcDbSpline
 70
0
 71
3
 72
10
 73
6
 74
4
 40
0.000000
 40
0.000000
 40
0.000000
 40
0.000000
 40
0.833508
 40
1.754606
 40
2.793303
 40
2.793303
 40
2.793303
 40
2.793303
 10
149.322260
 20
286.546876
 30
0.0
 10
149.579056
 20
286.438458
 30
0.0
 10
150.119635
 20
286.210229
 30
0.0
 10
150.863956
 20
285.633731
 30
0.0
 10
151.303925
 20
285.150595
 30
0.0
 10
151.537110
 20
284.894532
 30
0.0
 11
149.322260
 21
286.546876
 31
0.0
 11
150.076168
 21
286.191407
 31
0.0
 11
150.814451
 21
285.640625
 31
0.0
 11
151.537110
 21
284.894532
 31
0.0
  0
LWPOLYLINE
  5
11a
100
AcDbEntity
  8
Layer_1
 62
7
100
AcDbPolyline
 90
2
 70
0
 10
110.105470
 20
284.103516
 30
0.0
 10
110.105470
 20
300.486328
 30
0.0
  0
SPLINE
  5
11b
100
AcDbEntity
  8
Layer_1
 62
7
100
AcDbSpline
 70
0
 71
3
 72
10
 73
6
 74
4
 40
0.000000
 40
0.000000
 40
0.000000
 40
0.000000
 40
1.195369
 40
2.564258
 40
4.115966
 40
4.115966
 40
4.115966
 40
4.115966
 10
151.537110
 20
284.894532
 30
0.0
 10
151.785478
 20
284.582582
 30
0.0
 10
152.318267
 20
283.913399
 30
0.0
 10
153.036498
 20
282.740530
 30
0.0
 10
153.480763
 20
281.874293
 30
0.0
 10
153.716800
 20
281.414063
 30
0.0
 11
151.537110
 21
284.894532
 31
0.0
 11
152.263671
 21
283.945313
 31
0.0
 11
152.990234
 21
282.785157
 31
0.0
 11
153.716800
 21
281.414063
 31
0.0
  0
SPLINE
  5
11c
100
AcDbEntity
  8
Layer_1
 62
7
100
AcDbSpline
 70
0
 71
3
 72
10
 73
6
 74
4
 40
0.000000
 40
0.000000
 40
0.000000
 40
0.000000
 40
1.781525
 40
3.220798
 40
4.352602
 40
4.352602
 40
4.352602
 40
4.352602
 10
150.148440
 20
280.974610
 30
0.0
 10
149.873044
 20
281.500022
 30
0.0
 10
149.375158
 20
282.449909
 30
0.0
 10
148.555733
 20
283.664289
 30
0.0
 10
147.904060
 20
284.225575
 30
0.0
 10
147.617190
 20
284.472657
 30
0.0
 11
150.148440
 21
280.974610
 31
0.0
 11
149.289066
 21
282.535157
 31
0.0
 11
148.445316
 21
283.701173
 31
0.0
 11
147.617190
 21
284.472657
 31
0.0
  0
LWPOLYLINE
  5
11d
100
AcDbEntity
  8
Layer_1
 62
7
100
AcDbPolyline
 90
4
 70
0
 10
153.716800
 20
281.414063
 30
0.0
 10
157.320310
 20
274.242188
 30
0.0
 10
153.505860
 20
274.242188
 30
0.0
 10
150.148440
 20
280.974610
 30
0.0
  0
SPLINE
  5
11e
100
AcDbEntity
  8
Layer_1
 62
7
100
AcDbSpline
 70
0
 71
3
 72
10
 73
6
 74
4
 40
0.000000
 40
0.000000
 40
0.000000
 40
0.000000
 40
1.026553
 40
2.170589
 40
3.480732
 40
3.480732
 40
3.480732
 40
3.480732
 10
147.617190
 20
284.472657
 30
0.0
 10
147.321046
 20
284.647138
 30
0.0
 10
146.694867
 20
285.016068
 30
0.0
 10
145.548977
 20
285.285579
 30
0.0
 10
144.731385
 20
285.317138
 30
0.0
 10
144.294920
 20
285.333985
 30
0.0
 11
147.617190
 21
284.472657
 31
0.0
 11
146.708987
 21
284.951173
 31
0.0
 11
145.601563
 21
285.238282
 31
0.0
 11
144.294920
 21
285.333985
 31
0.0
  0
SPLINE
  5
11f
100
AcDbEntity
  8
Layer_1
 62
7
100
AcDbSpline
 70
0
 71
3
 72
16
 73
12
 74
10
 40
0.000000
 40
0.000000
 40
0.000000
 40
0.000000
 40
2.754034
 40
5.078462
 40
7.099941
 40
9.014501
 40
11.045981
 40
13.377365
 40
14.941280
 40
16.365867
 40
17.713572
 40
17.713572
 40
17.713572
 40
17.713572
 10
144.892580
 20
300.486328
 30
0.0
 10
145.812142
 20
300.453872
 30
0.0
 10
147.507822
 20
300.394023
 30
0.0
 10
149.818605
 20
299.779739
 30
0.0
 10
151.653478
 20
298.718722
 30
0.0
 10
152.957630
 20
297.160533
 30
0.0
 10
153.692982
 20
295.167383
 30
0.0
 10
153.875458
 20
293.182108
 30
0.0
 10
153.746341
 20
291.410428
 30
0.0
 10
153.378275
 20
289.993434
 30
0.0
 10
152.896377
 20
289.200114
 30
0.0
 10
152.662110
 20
288.814454
 30
0.0
 11
144.892580
 21
300.486328
 31
0.0
 11
147.638673
 21
300.277344
 31
0.0
 11
149.876953
 21
299.650391
 31
0.0
 11
151.607420
 21
298.605469
 31
0.0
 11
152.837887
 21
297.138672
 31
0.0
 11
153.576167
 21
295.246094
 31
0.0
 11
153.822260
 21
292.927735
 31
0.0
 11
153.693354
 21
291.369141
 31
0.0
 11
153.306638
 21
289.998047
 31
0.0
 11
152.662110
 21
288.814454
 31
0.0
  0
LWPOLYLINE
  5
120
100
AcDbEntity
  8
Layer_1
 62
7
100
AcDbPolyline
 90
6
 70
0
 10
144.294920
 20
285.333985
 30
0.0
 10
140.427730
 20
285.333985
 30
0.0
 10
140.427730
 20
274.242188
 30
0.0
 10
136.876950
 20
274.242188
 30
0.0
 10
136.876950
 20
300.486328
 30
0.0
 10
144.892580
 20
300.486328
 30
0.0
  0
LWPOLYLINE
  5
121
100
AcDbEntity
  8
Layer_1
 62
7
100
AcDbPolyline
 90
1
 70
1
 10
149.322260
 20
286.546876
 30
0.0
  0
SPLINE
  5
122
100
AcDbEntity
  8
Layer_1
 62
7
100
AcDbSpline
 70
0
 71
3
 72
10
 73
6
 74
4
 40
0.000000
 40
0.000000
 40
0.000000
 40
0.000000
 40
1.315284
 40
2.660915
 40
4.110222
 40
4.110222
 40
4.110222
 40
4.110222
 10
152.662110
 20
288.814454
 30
0.0
 10
152.384650
 20
288.472638
 30
0.0
 10
151.823330
 20
287.781119
 30
0.0
 10
150.662118
 20
287.009664
 30
0.0
 10
149.779789
 20
286.704907
 30
0.0
 10
149.322260
 20
286.546876
 30
0.0
 11
152.662110
 21
288.814454
 31
0.0
 11
151.783202
 21
287.835938
 31
0.0
 11
150.669919
 21
287.080079
 31
0.0
 11
149.322260
 21
286.546876
 31
0.0
  0
SPLINE
  5
123
100
AcDbEntity
  8
Layer_1
 62
7
100
AcDbSpline
 70
0
 71
3
 72
16
 73
12
 74
10
 40
0.000000
 40
0.000000
 40
0.000000
 40
0.000000
 40
1.575752
 40
2.923266
 40
4.124843
 40
5.300725
 40
6.546803
 40
7.966490
 40
9.382291
 40
10.617411
 40
11.778077
 40
11.778077
 40
11.778077
 40
11.778077
 10
144.892580
 20
288.251954
 30
0.0
 10
145.418862
 20
288.272529
 30
0.0
 10
146.395197
 20
288.310699
 30
0.0
 10
147.731388
 20
288.700290
 30
0.0
 10
148.798355
 20
289.372762
 30
0.0
 10
149.562063
 20
290.338912
 30
0.0
 10
150.001061
 20
291.561149
 30
0.0
 10
150.120000
 20
292.927762
 30
0.0
 10
149.998138
 20
294.283100
 30
0.0
 10
149.576071
 20
295.515290
 30
0.0
 10
149.026167
 20
296.104955
 30
0.0
 10
148.759760
 20
296.390625
 30
0.0
 11
144.892580
 21
288.251954
 31
0.0
 11
146.462889
 21
288.382813
 31
0.0
 11
147.751949
 21
288.775391
 31
0.0
 11
148.759760
 21
289.429688
 31
0.0
 11
149.492182
 21
290.349610
 31
0.0
 11
149.931636
 21
291.515625
 31
0.0
 11
150.078120
 21
292.927735
 31
0.0
 11
149.931636
 21
294.335938
 31
0.0
 11
149.492182
 21
295.490235
 31
0.0
 11
148.759760
 21
296.390625
 31
0.0
  0
LWPOLYLINE
  5
124
100
AcDbEntity
  8
Layer_1
 62
7
100
AcDbPolyline
 90
3
 70
0
 10
140.427730
 20
297.568360
 30
0.0
 10
140.427730
 20
288.251954
 30
0.0
 10
144.892580
 20
288.251954
 30
0.0
  0
LWPOLYLINE
  5
125
100
AcDbEntity
  8
Layer_1
 62
7
100
AcDbPolyline
 90
2
 70
0
 10
144.892580
 20
297.568360
 30
0.0
 10
140.427730
 20
297.568360
 30
0.0
  0
SPLINE
  5
126
100
AcDbEntity
  8
Layer_1
 62
7
100
AcDbSpline
 70
0
 71
3
 72
10
 73
6
 74
4
 40
0.000000
 40
0.000000
 40
0.000000
 40
0.000000
 40
1.201577
 40
2.549091
 40
4.124843
 40
4.124843
 40
4.124843
 40
4.124843
 10
148.759760
 20
296.390625
 30
0.0
 10
148.434748
 20
296.629350
 30
0.0
 10
147.745249
 20
297.135795
 30
0.0
 10
146.390846
 20
297.504664
 30
0.0
 10
145.417338
 20
297.546051
 30
0.0
 10
144.892580
 20
297.568360
 30
0.0
 11
148.759760
 21
296.390625
 31
0.0
 11
147.751949
 21
297.044922
 31
0.0
 11
146.462889
 21
297.437501
 31
0.0
 11
144.892580
 21
297.568360
 31
0.0
  0
SPLINE
  5
127
100
AcDbEntity
  8
Layer_1
 62
7
100
AcDbSpline
 70
0
 71
3
 72
10
 73
6
 74
4
 40
0.000000
 40
0.000000
 40
0.000000
 40
0.000000
 40
1.415908
 40
2.469700
 40
3.212016
 40
3.212016
 40
3.212016
 40
3.212016
 10
176.427730
 20
280.728516
 30
0.0
 10
176.441391
 20
280.258711
 30
0.0
 10
176.465219
 20
279.439253
 30
0.0
 10
176.619994
 20
278.355099
 30
0.0
 10
176.944157
 20
277.845414
 30
0.0
 10
177.078130
 20
277.634766
 30
0.0
 11
176.427730
 21
280.728516
 31
0.0
 11
176.499997
 21
279.314454
 31
0.0
 11
176.716797
 21
278.283204
 31
0.0
 11
177.078130
 21
277.634766
 31
0.0
  0
LWPOLYLINE
  5
128
100
AcDbEntity
  8
Layer_1
 62
7
100
AcDbPolyline
 90
6
 70
0
 10
176.427730
 20
299.519531
 30
0.0
 10
176.427730
 20
293.929688
 30
0.0
 10
183.089840
 20
293.929688
 30
0.0
 10
183.089840
 20
291.416016
 30
0.0
 10
176.427730
 20
291.416016
 30
0.0
 10
176.427730
 20
280.728516
 30
0.0
  0
SPLINE
  5
129
100
AcDbEntity
  8
Layer_1
 62
7
100
AcDbSpline
 70
0
 71
3
 72
10
 73
6
 74
4
 40
0.000000
 40
0.000000
 40
0.000000
 40
0.000000
 40
0.707061
 40
1.632214
 40
2.831890
 40
2.831890
 40
2.831890
 40
2.831890
 10
177.078130
 20
277.634766
 30
0.0
 10
177.270164
 20
277.494118
 30
0.0
 10
177.713465
 20
277.169441
 30
0.0
 10
178.663951
 20
276.985952
 30
0.0
 10
179.369332
 20
276.962473
 30
0.0
 10
179.767590
 20
276.949216
 30
0.0
 11
177.078130
 21
277.634766
 31
0.0
 11
177.673848
 21
277.253905
 31
0.0
 11
178.570334
 21
277.025388
 31
0.0
 11
179.767590
 21
276.949216
 31
0.0
  0
SPLINE
  5
12a
100
AcDbEntity
  8
Layer_1
 62
7
100
AcDbSpline
 70
0
 71
3
 72
10
 73
6
 74
4
 40
0.000000
 40
0.000000
 40
0.000000
 40
0.000000
 40
2.243598
 40
4.027361
 40
5.459878
 40
5.459878
 40
5.459878
 40
5.459878
 10
179.767590
 20
274.242184
 30
0.0
 10
179.021996
 20
274.268459
 30
0.0
 10
177.683621
 20
274.315624
 30
0.0
 10
175.862618
 20
274.709248
 30
0.0
 10
174.988810
 20
275.346865
 30
0.0
 10
174.599620
 20
275.630856
 30
0.0
 11
179.767590
 21
274.242184
 31
0.0
 11
177.529304
 21
274.396481
 31
0.0
 11
175.806648
 21
274.859372
 31
0.0
 11
174.599620
 21
275.630856
 31
0.0
  0
LWPOLYLINE
  5
12b
100
AcDbEntity
  8
Layer_1
 62
7
100
AcDbPolyline
 90
4
 70
0
 10
179.767590
 20
276.949216
 30
0.0
 10
183.089850
 20
276.949216
 30
0.0
 10
183.089850
 20
274.242184
 30
0.0
 10
179.767590
 20
274.242184
 30
0.0
  0
LWPOLYLINE
  5
12c
100
AcDbEntity
  8
Layer_1
 62
7
100
AcDbPolyline
 90
7
 70
0
 10
173.175790
 20
280.728512
 30
0.0
 10
173.175790
 20
291.416012
 30
0.0
 10
170.802730
 20
291.416012
 30
0.0
 10
170.802730
 20
293.929688
 30
0.0
 10
173.175780
 20
293.929688
 30
0.0
 10
173.175780
 20
299.519531
 30
0.0
 10
176.427730
 20
299.519531
 30
0.0
  0
SPLINE
  5
12d
100
AcDbEntity
  8
Layer_1
 62
7
100
AcDbSpline
 70
0
 71
3
 72
10
 73
6
 74
4
 40
0.000000
 40
0.000000
 40
0.000000
 40
0.000000
 40
1.430090
 40
3.194345
 40
5.407039
 40
5.407039
 40
5.407039
 40
5.407039
 10
174.599620
 20
275.630856
 30
0.0
 10
174.308633
 20
276.014075
 30
0.0
 10
173.658665
 20
276.870059
 30
0.0
 10
173.250511
 20
278.671559
 30
0.0
 10
173.202502
 20
279.993186
 30
0.0
 10
173.175790
 20
280.728512
 30
0.0
 11
174.599620
 21
275.630856
 31
0.0
 11
173.808603
 21
276.822262
 31
0.0
 11
173.333993
 21
278.521481
 31
0.0
 11
173.175790
 21
280.728512
 31
0.0
  0
SPLINE
  5
12e
100
AcDbEntity
  8
Layer_1
 62
7
100
AcDbSpline
 70
0
 71
3
 72
10
 73
6
 74
4
 40
0.000000
 40
0.000000
 40
0.000000
 40
0.000000
 40
1.713269
 40
3.160013
 40
4.408456
 40
4.408456
 40
4.408456
 40
4.408456
 10
190.261720
 20
282.134766
 30
0.0
 10
190.282678
 20
281.564369
 30
0.0
 10
190.321334
 20
280.512308
 30
0.0
 10
190.651568
 20
279.055082
 30
0.0
 10
191.129962
 20
278.288626
 30
0.0
 10
191.351560
 20
277.933594
 30
0.0
 11
190.261720
 21
282.134766
 31
0.0
 11
190.382813
 21
280.425782
 31
0.0
 11
190.746093
 21
279.025391
 31
0.0
 11
191.351560
 21
277.933594
 31
0.0
  0
SPLINE
  5
12f
100
AcDbEntity
  8
Layer_1
 62
7
100
AcDbSpline
 70
0
 71
3
 72
13
 73
9
 74
7
 40
0.000000
 40
0.000000
 40
0.000000
 40
0.000000
 40
1.146173
 40
2.330245
 40
3.671180
 40
5.304798
 40
6.790008
 40
8.252722
 40
8.252722
 40
8.252722
 40
8.252722
 10
191.351560
 20
277.933594
 30
0.0
 10
191.617749
 20
277.653988
 30
0.0
 10
192.158930
 20
277.085532
 30
0.0
 10
193.331204
 20
276.628423
 30
0.0
 10
194.718651
 20
276.494575
 30
0.0
 10
196.207213
 20
276.652985
 30
0.0
 10
197.668899
 20
277.202373
 30
0.0
 10
198.392774
 20
277.879075
 30
0.0
 10
198.751950
 20
278.214844
 30
0.0
 11
191.351560
 21
277.933594
 31
0.0
 11
192.199219
 21
277.162110
 31
0.0
 11
193.289062
 21
276.699220
 31
0.0
 11
194.621090
 21
276.544923
 31
0.0
 11
196.244137
 21
276.730470
 31
0.0
 11
197.621090
 21
277.287110
 31
0.0
 11
198.751950
 21
278.214844
 31
0.0
  0
LWPOLYLINE
  5
130
100
AcDbEntity
  8
Layer_1
 62
7
100
AcDbPolyline
 90
4
 70
0
 10
187.027340
 20
282.011719
 30
0.0
 10
187.027340
 20
293.929688
 30
0.0
 10
190.261720
 20
293.929688
 30
0.0
 10
190.261720
 20
282.134766
 30
0.0
  0
SPLINE
  5
131
100
AcDbEntity
  8
Layer_1
 62
7
100
AcDbSpline
 70
0
 71
3
 72
10
 73
6
 74
4
 40
0.000000
 40
0.000000
 40
0.000000
 40
0.000000
 40
1.509788
 40
3.110696
 40
4.905866
 40
4.905866
 40
4.905866
 40
4.905866
 10
198.751950
 20
278.214844
 30
0.0
 10
199.060061
 20
278.616545
 30
0.0
 10
199.694878
 20
279.444190
 30
0.0
 10
200.195797
 20
281.036974
 30
0.0
 10
200.251700
 20
282.169124
 30
0.0
 10
200.281250
 20
282.767579
 30
0.0
 11
198.751950
 21
278.214844
 31
0.0
 11
199.601561
 21
279.462891
 31
0.0
 11
200.111328
 21
280.980469
 31
0.0
 11
200.281250
 21
282.767579
 31
0.0
  0
SPLINE
  5
132
100
AcDbEntity
  8
Layer_1
 62
7
100
AcDbSpline
 70
0
 71
3
 72
10
 73
6
 74
4
 40
0.000000
 40
0.000000
 40
0.000000
 40
0.000000
 40
1.371891
 40
2.648106
 40
3.861635
 40
3.861635
 40
3.861635
 40
3.861635
 10
200.281250
 20
277.265626
 30
0.0
 10
200.015934
 20
276.892744
 30
0.0
 10
199.503804
 20
276.172984
 30
0.0
 10
198.582147
 20
275.258657
 30
0.0
 10
197.880870
 20
274.811635
 30
0.0
 10
197.539060
 20
274.593751
 30
0.0
 11
200.281250
 21
277.265626
 31
0.0
 11
199.453122
 21
276.171876
 31
0.0
 11
198.539059
 21
275.281251
 31
0.0
 11
197.539060
 21
274.593751
 31
0.0
  0
LWPOLYLINE
  5
133
100
AcDbEntity
  8
Layer_1
 62
7
100
AcDbPolyline
 90
6
 70
0
 10
200.281250
 20
282.767579
 30
0.0
 10
200.281250
 20
293.929688
 30
0.0
 10
203.515620
 20
293.929688
 30
0.0
 10
203.515620
 20
274.242188
 30
0.0
 10
200.281250
 20
274.242188
 30
0.0
 10
200.281250
 20
277.265626
 30
0.0
  0
LWPOLYLINE
  5
134
100
AcDbEntity
  8
Layer_1
 62
7
100
AcDbPolyline
 90
1
 70
1
 10
187.027340
 20
282.011717
 30
0.0
  0
SPLINE
  5
135
100
AcDbEntity
  8
Layer_1
 62
7
100
AcDbSpline
 70
0
 71
3
 72
16
 73
12
 74
10
 40
0.000000
 40
0.000000
 40
0.000000
 40
0.000000
 40
1.188477
 40
2.423484
 40
3.741415
 40
5.834657
 40
7.689859
 40
9.480192
 40
11.374384
 40
13.512864
 40
16.010745
 40
16.010745
 40
16.010745
 40
16.010745
 10
197.539060
 20
274.593751
 30
0.0
 10
197.181757
 20
274.420102
 30
0.0
 10
196.453162
 20
274.066006
 30
0.0
 10
195.225773
 20
273.791719
 30
0.0
 10
193.678436
 20
273.686938
 30
0.0
 10
191.913269
 20
273.857741
 30
0.0
 10
190.103470
 20
274.567907
 30
0.0
 10
188.683051
 20
275.804926
 30
0.0
 10
187.695224
 20
277.507230
 30
0.0
 10
187.115314
 20
279.629446
 30
0.0
 10
187.058142
 20
281.177623
 30
0.0
 10
187.027340
 20
282.011717
 30
0.0
 11
197.539060
 21
274.593751
 31
0.0
 11
196.451172
 21
274.115234
 31
0.0
 11
195.250002
 21
273.828124
 31
0.0
 11
193.935550
 21
273.732421
 31
0.0
 11
191.855471
 21
273.966796
 31
0.0
 11
190.138674
 21
274.669921
 31
0.0
 11
188.785160
 21
275.841796
 31
0.0
 11
187.808593
 21
277.464843
 31
0.0
 11
187.222653
 21
279.521483
 31
0.0
 11
187.027340
 21
282.011717
 31
0.0
  0
SPLINE
  5
136
100
AcDbEntity
  8
Layer_1
 62
7
100
AcDbSpline
 70
0
 71
3
 72
10
 73
6
 74
4
 40
0.000000
 40
0.000000
 40
0.000000
 40
0.000000
 40
0.421016
 40
0.847584
 40
1.284411
 40
1.284411
 40
1.284411
 40
1.284411
 10
221.621090
 20
290.906250
 30
0.0
 10
221.497414
 20
290.972778
 30
0.0
 10
221.248431
 20
291.106711
 30
0.0
 10
220.846795
 20
291.259455
 30
0.0
 10
220.567226
 20
291.328399
 30
0.0
 10
220.425780
 20
291.363280
 30
0.0
 11
221.621090
 21
290.906250
 31
0.0
 11
221.246100
 21
291.097658
 31
0.0
 11
220.847663
 21
291.250001
 31
0.0
 11
220.425780
 21
291.363280
 31
0.0
  0
SPLINE
  5
137
100
AcDbEntity
  8
Layer_1
 62
7
100
AcDbSpline
 70
0
 71
3
 72
13
 73
9
 74
7
 40
0.000000
 40
0.000000
 40
0.000000
 40
0.000000
 40
0.446235
 40
0.917942
 40
1.418256
 40
3.117476
 40
4.645459
 40
6.148066
 40
6.148066
 40
6.148066
 40
6.148066
 10
220.425780
 20
291.363280
 30
0.0
 10
220.280411
 20
291.395242
 30
0.0
 10
219.981375
 20
291.460989
 30
0.0
 10
219.510283
 20
291.510295
 30
0.0
 10
218.620080
 20
291.540164
 30
0.0
 10
217.374901
 20
291.408953
 30
0.0
 10
215.870659
 20
290.816028
 30
0.0
 10
215.155410
 20
290.088987
 30
0.0
 10
214.800780
 20
289.728511
 30
0.0
 11
220.425780
 21
291.363280
 31
0.0
 11
219.988286
 21
291.451169
 31
0.0
 11
219.519536
 21
291.503902
 31
0.0
 11
219.019530
 21
291.521480
 31
0.0
 11
217.332029
 21
291.322261
 31
0.0
 11
215.925779
 21
290.724605
 31
0.0
 11
214.800780
 21
289.728511
 31
0.0
  0
LWPOLYLINE
  5
138
100
AcDbEntity
  8
Layer_1
 62
7
100
AcDbPolyline
 90
1
 70
1
 10
195.166010
 20
294.404297
 30
0.0
  0
SPLINE
  5
139
100
AcDbEntity
  8
Layer_1
 62
7
100
AcDbSpline
 70
0
 71
3
 72
10
 73
6
 74
4
 40
0.000000
 40
0.000000
 40
0.000000
 40
0.000000
 40
1.581005
 40
3.354083
 40
5.413208
 40
5.413208
 40
5.413208
 40
5.413208
 10
214.800780
 20
289.728511
 30
0.0
 10
214.505045
 20
289.288594
 30
0.0
 10
213.877648
 20
288.355314
 30
0.0
 10
213.421918
 20
286.575456
 30
0.0
 10
213.369803
 20
285.299094
 30
0.0
 10
213.341800
 20
284.613277
 30
0.0
 11
214.800780
 21
289.728511
 31
0.0
 11
213.990236
 21
288.371089
 31
0.0
 11
213.503909
 21
286.666011
 31
0.0
 11
213.341800
 21
284.613277
 31
0.0
  0
SPLINE
  5
13a
100
AcDbEntity
  8
Layer_1
 62
7
100
AcDbSpline
 70
0
 71
3
 72
10
 73
6
 74
4
 40
0.000000
 40
0.000000
 40
0.000000
 40
0.000000
 40
1.323478
 40
2.574724
 40
3.800590
 40
3.800590
 40
3.800590
 40
3.800590
 10
213.341800
 20
290.871089
 30
0.0
 10
213.577857
 20
291.244550
 30
0.0
 10
214.037089
 20
291.971089
 30
0.0
 10
214.937725
 20
292.883848
 30
0.0
 10
215.645720
 20
293.313006
 30
0.0
 10
215.996090
 20
293.525386
 30
0.0
 11
213.341800
 21
290.871089
 31
0.0
 11
214.089846
 21
291.962886
 31
0.0
 11
214.974609
 21
292.847652
 31
0.0
 11
215.996090
 21
293.525386
 31
0.0
  0
SPLINE
  5
13b
100
AcDbEntity
  8
Layer_1
 62
7
100
AcDbSpline
 70
0
 71
3
 72
13
 73
9
 74
7
 40
0.000000
 40
0.000000
 40
0.000000
 40
0.000000
 40
1.265929
 40
2.622170
 40
4.105857
 40
4.336409
 40
4.583135
 40
4.846490
 40
4.846490
 40
4.846490
 40
4.846490
 10
215.996090
 20
293.525386
 30
0.0
 10
216.380131
 20
293.703357
 30
0.0
 10
217.175610
 20
294.071996
 30
0.0
 10
218.527663
 20
294.342673
 30
0.0
 10
219.551025
 20
294.414100
 30
0.0
 10
220.204699
 20
294.400230
 30
0.0
 10
220.451055
 20
294.382330
 30
0.0
 10
220.619884
 20
294.362061
 30
0.0
 10
220.707050
 20
294.351596
 30
0.0
 11
215.996090
 21
293.525386
 31
0.0
 11
217.164061
 21
294.013669
 31
0.0
 11
218.488281
 21
294.306639
 31
0.0
 11
219.968750
 21
294.404296
 31
0.0
 11
220.199228
 21
294.398440
 31
0.0
 11
220.445328
 21
294.380874
 31
0.0
 11
220.707050
 21
294.351596
 31
0.0
  0
LWPOLYLINE
  5
13c
100
AcDbEntity
  8
Layer_1
 62
7
100
AcDbPolyline
 90
6
 70
0
 10
213.341800
 20
284.613277
 30
0.0
 10
213.341800
 20
274.242183
 30
0.0
 10
210.089840
 20
274.242183
 30
0.0
 10
210.089840
 20
293.929683
 30
0.0
 10
213.341800
 20
293.929683
 30
0.0
 10
213.341800
 20
290.871089
 30
0.0
  0
LWPOLYLINE
  5
13d
100
AcDbEntity
  8
Layer_1
 62
7
100
AcDbPolyline
 90
2
 70
0
 10
221.603550
 20
294.228546
 30
0.0
 10
221.621090
 20
290.906250
 30
0.0
  0
SPLINE
  5
13e
100
AcDbEntity
  8
Layer_1
 62
7
100
AcDbSpline
 70
0
 71
3
 72
10
 73
6
 74
4
 40
0.000000
 40
0.000000
 40
0.000000
 40
0.000000
 40
0.280834
 40
0.582469
 40
0.905171
 40
0.905171
 40
0.905171
 40
0.905171
 10
220.707050
 20
294.351596
 30
0.0
 10
220.800218
 20
294.342425
 30
0.0
 10
220.993455
 20
294.323404
 30
0.0
 10
221.292386
 20
294.281786
 30
0.0
 10
221.497521
 20
294.246688
 30
0.0
 10
221.603550
 20
294.228546
 30
0.0
 11
220.707050
 21
294.351596
 31
0.0
 11
220.986350
 21
294.322279
 31
0.0
 11
221.285183
 21
294.281263
 31
0.0
 11
221.603550
 21
294.228546
 31
0.0
  0
LWPOLYLINE
  5
13f
100
AcDbEntity
  8
Layer_1
 62
7
100
AcDbPolyline
 90
4
 70
0
 10
240.781250
 20
286.125001
 30
0.0
 10
240.781250
 20
274.242188
 30
0.0
 10
237.546880
 20
274.242188
 30
0.0
 10
237.546880
 20
286.019532
 30
0.0
  0
SPLINE
  5
140
100
AcDbEntity
  8
Layer_1
 62
7
100
AcDbSpline
 70
0
 71
3
 72
19
 73
15
 74
13
 40
0.000000
 40
0.000000
 40
0.000000
 40
0.000000
 40
1.711321
 40
3.152394
 40
4.392308
 40
5.538478
 40
6.722550
 40
8.063489
 40
9.697107
 40
11.182318
 40
12.645033
 40
14.149346
 40
15.748397
 40
17.543383
 40
17.543383
 40
17.543383
 40
17.543383
 10
237.546880
 20
286.019532
 30
0.0
 10
237.528072
 20
286.590815
 30
0.0
 10
237.493427
 20
287.643166
 30
0.0
 10
237.139393
 20
289.077195
 30
0.0
 10
236.531118
 20
290.219118
 30
0.0
 10
235.635723
 20
291.040757
 30
0.0
 10
234.481517
 20
291.511703
 30
0.0
 10
233.089402
 20
291.640147
 30
0.0
 10
231.597384
 20
291.487876
 30
0.0
 10
230.154146
 20
290.921529
 30
0.0
 10
228.992260
 20
289.959787
 30
0.0
 10
228.139585
 20
288.676493
 30
0.0
 10
227.624680
 20
287.103056
 30
0.0
 10
227.572510
 20
285.968937
 30
0.0
 10
227.544920
 20
285.369141
 30
0.0
 11
237.546880
 21
286.019532
 31
0.0
 11
237.425786
 21
287.726563
 31
0.0
 11
237.062502
 21
289.121094
 31
0.0
 11
236.457030
 21
290.203125
 31
0.0
 11
235.609376
 21
290.974609
 31
0.0
 11
234.519532
 21
291.437500
 31
0.0
 11
233.187500
 21
291.591797
 31
0.0
 11
231.564453
 21
291.406250
 31
0.0
 11
230.187500
 21
290.849609
 31
0.0
 11
229.056640
 21
289.921875
 31
0.0
 11
228.216796
 21
288.673829
 31
0.0
 11
227.712889
 21
287.156251
 31
0.0
 11
227.544920
 21
285.369141
 31
0.0
  0
SPLINE
  5
141
100
AcDbEntity
  8
Layer_1
 62
7
100
AcDbSpline
 70
0
 71
3
 72
10
 73
6
 74
4
 40
0.000000
 40
0.000000
 40
0.000000
 40
0.000000
 40
1.358211
 40
2.626140
 40
3.836953
 40
3.836953
 40
3.836953
 40
3.836953
 10
227.544920
 20
290.871094
 30
0.0
 10
227.806958
 20
291.240736
 30
0.0
 10
228.313617
 20
291.955450
 30
0.0
 10
229.230012
 20
292.863450
 30
0.0
 10
229.928388
 20
293.308160
 30
0.0
 10
230.269530
 20
293.525391
 30
0.0
 11
227.544920
 21
290.871094
 31
0.0
 11
228.363281
 21
291.955079
 31
0.0
 11
229.271484
 21
292.839844
 31
0.0
 11
230.269530
 21
293.525391
 31
0.0
  0
SPLINE
  5
142
100
AcDbEntity
  8
Layer_1
 62
7
100
AcDbSpline
 70
0
 71
3
 72
13
 73
9
 74
7
 40
0.000000
 40
0.000000
 40
0.000000
 40
0.000000
 40
1.210295
 40
2.458070
 40
3.780042
 40
5.871338
 40
7.721119
 40
9.504083
 40
9.504083
 40
9.504083
 40
9.504083
 10
230.269530
 20
293.525391
 30
0.0
 10
230.633280
 20
293.702433
 30
0.0
 10
231.372044
 20
294.061999
 30
0.0
 10
232.610738
 20
294.343187
 30
0.0
 10
234.164489
 20
294.451246
 30
0.0
 10
235.920706
 20
294.274038
 30
0.0
 10
237.753556
 20
293.586235
 30
0.0
 10
238.617160
 20
292.720052
 30
0.0
 10
239.041020
 20
292.294926
 30
0.0
 11
230.269530
 21
293.525391
 31
0.0
 11
231.376957
 21
294.013674
 31
0.0
 11
232.589850
 21
294.306644
 31
0.0
 11
233.908210
 21
294.404301
 31
0.0
 11
235.986331
 21
294.169926
 31
0.0
 11
237.697268
 21
293.466801
 31
0.0
 11
239.041020
 21
292.294926
 31
0.0
  0
LWPOLYLINE
  5
143
100
AcDbEntity
  8
Layer_1
 62
7
100
AcDbPolyline
 90
6
 70
0
 10
227.544920
 20
285.369141
 30
0.0
 10
227.544920
 20
274.242188
 30
0.0
 10
224.292970
 20
274.242188
 30
0.0
 10
224.292970
 20
293.929688
 30
0.0
 10
227.544920
 20
293.929688
 30
0.0
 10
227.544920
 20
290.871094
 30
0.0
  0
LWPOLYLINE
  5
144
100
AcDbEntity
  8
Layer_1
 62
7
100
AcDbPolyline
 90
1
 70
1
 10
240.781250
 20
286.125005
 30
0.0
  0
SPLINE
  5
145
100
AcDbEntity
  8
Layer_1
 62
7
100
AcDbSpline
 70
0
 71
3
 72
10
 73
6
 74
4
 40
0.000000
 40
0.000000
 40
0.000000
 40
0.000000
 40
1.882465
 40
4.019345
 40
6.524864
 40
6.524864
 40
6.524864
 40
6.524864
 10
239.041020
 20
292.294926
 30
0.0
 10
239.394182
 20
291.771611
 30
0.0
 10
240.148237
 20
290.654255
 30
0.0
 10
240.686354
 20
288.505205
 30
0.0
 10
240.747987
 20
286.959323
 30
0.0
 10
240.781250
 20
286.125005
 30
0.0
 11
239.041020
 21
292.294926
 31
0.0
 11
240.007814
 21
290.679692
 31
0.0
 11
240.587891
 21
288.623051
 31
0.0
 11
240.781250
 21
286.125005
 31
0.0
  0
SPLINE
  5
146
100
AcDbEntity
  8
Layer_1
 62
7
100
AcDbSpline
 70
0
 71
3
 72
10
 73
6
 74
4
 40
0.000000
 40
0.000000
 40
0.000000
 40
0.000000
 40
1.629111
 40
3.159429
 40
4.758708
 40
4.758708
 40
4.758708
 40
4.758708
 10
282.248040
 20
291.662110
 30
0.0
 10
281.703158
 20
291.622378
 30
0.0
 10
280.646437
 20
291.545322
 30
0.0
 10
279.175851
 20
290.821043
 30
0.0
 10
278.486851
 20
290.028203
 30
0.0
 10
278.134760
 20
289.623047
 30
0.0
 11
282.248040
 21
291.662110
 31
0.0
 11
280.634760
 21
291.435547
 31
0.0
 11
279.263667
 21
290.755860
 31
0.0
 11
278.134760
 21
289.623047
 31
0.0
  0
SPLINE
  5
147
100
AcDbEntity
  8
Layer_1
 62
7
100
AcDbSpline
 70
0
 71
3
 72
13
 73
9
 74
7
 40
0.000000
 40
0.000000
 40
0.000000
 40
0.000000
 40
1.732760
 40
3.651667
 40
5.845606
 40
8.041345
 40
9.964380
 40
11.701000
 40
11.701000
 40
11.701000
 40
11.701000
 10
278.134760
 20
289.623047
 30
0.0
 10
277.827932
 20
289.129914
 30
0.0
 10
277.181313
 20
288.090671
 30
0.0
 10
276.719523
 20
286.169500
 30
0.0
 10
276.571779
 20
284.067771
 30
0.0
 10
276.718806
 20
281.964605
 30
0.0
 10
277.174815
 20
280.039595
 30
0.0
 10
277.813910
 20
278.992821
 30
0.0
 10
278.117180
 20
278.496094
 30
0.0
 11
278.134760
 21
289.623047
 31
0.0
 11
277.294916
 21
288.107422
 31
0.0
 11
276.791009
 21
286.255860
 31
0.0
 11
276.623040
 21
284.068360
 31
0.0
 11
276.789056
 21
281.878907
 31
0.0
 11
277.287102
 21
280.021485
 31
0.0
 11
278.117180
 21
278.496094
 31
0.0
  0
SPLINE
  5
148
100
AcDbEntity
  8
Layer_1
 62
7
100
AcDbSpline
 70
0
 71
3
 72
19
 73
15
 74
13
 40
0.000000
 40
0.000000
 40
0.000000
 40
0.000000
 40
1.593762
 40
3.126748
 40
4.765262
 40
6.384702
 40
7.909772
 40
9.507673
 40
11.247271
 40
13.166178
 40
15.352328
 40
17.528741
 40
19.441995
 40
21.179883
 40
21.179883
 40
21.179883
 40
21.179883
 10
278.117180
 20
278.496094
 30
0.0
 10
278.470166
 20
278.092653
 30
0.0
 10
279.162676
 20
277.301156
 30
0.0
 10
280.639859
 20
276.606839
 30
0.0
 10
282.240396
 20
276.406660
 30
0.0
 10
283.845669
 20
276.605837
 30
0.0
 10
285.290674
 20
277.323074
 30
0.0
 10
286.434765
 20
278.507693
 30
0.0
 10
287.275171
 20
280.066530
 30
0.0
 10
287.765058
 20
281.967678
 30
0.0
 10
287.905231
 20
284.066400
 30
0.0
 10
287.758913
 20
286.155826
 30
0.0
 10
287.294562
 20
288.070058
 30
0.0
 10
286.650367
 20
289.110320
 30
0.0
 10
286.343740
 20
289.605469
 30
0.0
 11
278.117180
 21
278.496094
 31
0.0
 11
279.248040
 21
277.373047
 31
0.0
 11
280.624993
 21
276.699219
 31
0.0
 11
282.248040
 21
276.474610
 31
0.0
 11
283.851553
 21
276.701173
 31
0.0
 11
285.216787
 21
277.380860
 31
0.0
 11
286.343740
 21
278.513673
 31
0.0
 11
287.183584
 21
280.037110
 31
0.0
 11
287.687491
 21
281.888673
 31
0.0
 11
287.855460
 21
284.068360
 31
0.0
 11
287.687491
 21
286.238282
 31
0.0
 11
287.183584
 21
288.083985
 31
0.0
 11
286.343740
 21
289.605469
 31
0.0
  0
LWPOLYLINE
  5
149
100
AcDbEntity
  8
Layer_1
 62
7
100
AcDbPolyline
 90
8
 70
1
 10
255.230470
 20
300.486328
 30
0.0
 10
277.431640
 20
300.486328
 30
0.0
 10
277.431640
 20
297.498047
 30
0.0
 10
268.115230
 20
297.498047
 30
0.0
 10
268.115230
 20
274.242188
 30
0.0
 10
264.546870
 20
274.242188
 30
0.0
 10
264.546870
 20
297.498047
 30
0.0
 10
255.230470
 20
297.498047
 30
0.0
  0
SPLINE
  5
14a
100
AcDbEntity
  8
Layer_1
 62
7
100
AcDbSpline
 70
0
 71
3
 72
10
 73
6
 74
4
 40
0.000000
 40
0.000000
 40
0.000000
 40
0.000000
 40
1.604839
 40
3.132529
 40
4.752244
 40
4.752244
 40
4.752244
 40
4.752244
 10
286.343740
 20
289.605469
 30
0.0
 10
285.992566
 20
290.013790
 30
0.0
 10
285.307101
 20
290.810802
 30
0.0
 10
283.842767
 20
291.543738
 30
0.0
 10
282.789877
 20
291.621891
 30
0.0
 10
282.248040
 20
291.662110
 30
0.0
 11
286.343740
 21
289.605469
 31
0.0
 11
285.216787
 21
290.748047
 31
0.0
 11
283.851553
 21
291.433594
 31
0.0
 11
282.248040
 21
291.662110
 31
0.0
  0
SPLINE
  5
14b
100
AcDbEntity
  8
Layer_1
 62
7
100
AcDbSpline
 70
0
 71
3
 72
16
 73
12
 74
10
 40
0.000000
 40
0.000000
 40
0.000000
 40
0.000000
 40
2.629043
 40
5.019674
 40
7.382893
 40
9.841318
 40
12.496805
 40
15.508714
 40
18.512842
 40
21.168328
 40
23.633311
 40
23.633311
 40
23.633311
 40
23.633311
 10
282.248040
 20
294.404297
 30
0.0
 10
283.127872
 20
294.353670
 30
0.0
 10
284.807750
 20
294.257008
 30
0.0
 10
287.127466
 20
293.295523
 30
0.0
 10
288.987261
 20
291.717909
 30
0.0
 10
290.349080
 20
289.587722
 30
0.0
 10
291.139360
 20
286.968461
 30
0.0
 10
291.361858
 20
284.068829
 30
0.0
 10
291.130808
 20
281.181463
 30
0.0
 10
290.374727
 20
278.531219
 30
0.0
 10
289.362347
 20
277.142930
 30
0.0
 10
288.874990
 20
276.474610
 30
0.0
 11
282.248040
 21
294.404297
 31
0.0
 11
284.859368
 21
294.099610
 31
0.0
 11
287.068351
 21
293.185547
 31
0.0
 11
288.874990
 21
291.662110
 31
0.0
 11
290.212879
 21
289.599610
 31
0.0
 11
291.015612
 21
287.068360
 31
0.0
 11
291.283190
 21
284.068360
 31
0.0
 11
291.015612
 21
281.076173
 31
0.0
 11
290.212879
 21
278.544923
 31
0.0
 11
288.874990
 21
276.474610
 31
0.0
  0
SPLINE
  5
14c
100
AcDbEntity
  8
Layer_1
 62
7
100
AcDbSpline
 70
0
 71
3
 72
13
 73
9
 74
7
 40
0.000000
 40
0.000000
 40
0.000000
 40
0.000000
 40
2.363219
 40
4.753850
 40
7.382893
 40
10.021638
 40
12.417684
 40
14.782397
 40
14.782397
 40
14.782397
 40
14.782397
 10
288.874990
 20
276.474610
 30
0.0
 10
288.302568
 20
275.923662
 30
0.0
 10
287.151086
 20
274.815377
 30
0.0
 10
284.801129
 20
273.907407
 30
0.0
 10
282.244771
 20
273.640778
 30
0.0
 10
279.686786
 20
273.907278
 30
0.0
 10
277.330272
 20
274.814094
 30
0.0
 10
276.176566
 20
275.923539
 30
0.0
 10
275.603510
 20
276.474610
 30
0.0
 11
288.874990
 21
276.474610
 31
0.0
 11
287.068351
 21
274.951173
 31
0.0
 11
284.859368
 21
274.037110
 31
0.0
 11
282.248040
 21
273.732423
 31
0.0
 11
279.626946
 21
274.037110
 31
0.0
 11
277.412102
 21
274.951173
 31
0.0
 11
275.603510
 21
276.474610
 31
0.0
  0
SPLINE
  5
14d
100
AcDbEntity
  8
Layer_1
 62
7
100
AcDbSpline
 70
0
 71
3
 72
13
 73
9
 74
7
 40
0.000000
 40
0.000000
 40
0.000000
 40
0.000000
 40
2.459699
 40
5.113420
 40
8.117375
 40
11.129111
 40
13.782833
 40
16.235960
 40
16.235960
 40
16.235960
 40
16.235960
 10
275.603510
 20
276.474610
 30
0.0
 10
275.119591
 20
277.143245
 30
0.0
 10
274.113582
 20
278.533257
 30
0.0
 10
273.364744
 20
281.181733
 30
0.0
 10
273.132288
 20
284.070996
 30
0.0
 10
273.364406
 20
286.960014
 30
0.0
 10
274.111753
 20
289.609896
 30
0.0
 10
275.119452
 20
290.996190
 30
0.0
 10
275.603510
 20
291.662110
 30
0.0
 11
275.603510
 21
276.474610
 31
0.0
 11
274.275382
 21
278.544923
 31
0.0
 11
273.478506
 21
281.076173
 31
0.0
 11
273.212880
 21
284.068360
 31
0.0
 11
273.478506
 21
287.068360
 31
0.0
 11
274.275382
 21
289.599610
 31
0.0
 11
275.603510
 21
291.662110
 31
0.0
  0
LWPOLYLINE
  5
14e
100
AcDbEntity
  8
Layer_1
 62
7
100
AcDbPolyline
 90
1
 70
1
 10
282.248040
 20
291.662110
 30
0.0
  0
SPLINE
  5
14f
100
AcDbEntity
  8
Layer_1
 62
7
100
AcDbSpline
 70
0
 71
3
 72
10
 73
6
 74
4
 40
0.000000
 40
0.000000
 40
0.000000
 40
0.000000
 40
2.364713
 40
4.760760
 40
7.399504
 40
7.399504
 40
7.399504
 40
7.399504
 10
275.603510
 20
291.662110
 30
0.0
 10
276.176567
 20
292.211454
 30
0.0
 10
277.330274
 20
293.317422
 30
0.0
 10
279.686778
 20
294.251476
 30
0.0
 10
281.367284
 20
294.351745
 30
0.0
 10
282.248040
 20
294.404297
 30
0.0
 11
275.603510
 21
291.662110
 31
0.0
 11
277.412102
 21
293.185547
 31
0.0
 11
279.626946
 21
294.099610
 31
0.0
 11
282.248040
 21
294.404297
 31
0.0
  0
SPLINE
  5
150
100
AcDbEntity
  8
Layer_1
 62
7
100
AcDbSpline
 70
0
 71
3
 72
10
 73
6
 74
4
 40
0.000000
 40
0.000000
 40
0.000000
 40
0.000000
 40
0.421012
 40
0.847577
 40
1.284400
 40
1.284400
 40
1.284400
 40
1.284400
 10
154.121090
 20
245.906250
 30
0.0
 10
153.997414
 20
245.972776
 30
0.0
 10
153.748431
 20
246.106704
 30
0.0
 10
153.346795
 20
246.259438
 30
0.0
 10
153.067226
 20
246.328373
 30
0.0
 10
152.925780
 20
246.363250
 30
0.0
 11
154.121090
 21
245.906250
 31
0.0
 11
153.746100
 21
246.097650
 31
0.0
 11
153.347663
 21
246.249983
 31
0.0
 11
152.925780
 21
246.363250
 31
0.0
  0
SPLINE
  5
151
100
AcDbEntity
  8
Layer_1
 62
7
100
AcDbSpline
 70
0
 71
3
 72
13
 73
9
 74
7
 40
0.000000
 40
0.000000
 40
0.000000
 40
0.000000
 40
0.446235
 40
0.917942
 40
1.418256
 40
3.117476
 40
4.645458
 40
6.148061
 40
6.148061
 40
6.148061
 40
6.148061
 10
152.925780
 20
246.363250
 30
0.0
 10
152.780411
 20
246.395212
 30
0.0
 10
152.481375
 20
246.460959
 30
0.0
 10
152.010283
 20
246.510265
 30
0.0
 10
151.120080
 20
246.540134
 30
0.0
 10
149.874902
 20
246.408923
 30
0.0
 10
148.370660
 20
245.816002
 30
0.0
 10
147.655410
 20
245.088964
 30
0.0
 10
147.300780
 20
244.728490
 30
0.0
 11
152.925780
 21
246.363250
 31
0.0
 11
152.488286
 21
246.451139
 31
0.0
 11
152.019536
 21
246.503872
 31
0.0
 11
151.519530
 21
246.521450
 31
0.0
 11
149.832029
 21
246.322232
 31
0.0
 11
148.425779
 21
245.724579
 31
0.0
 11
147.300780
 21
244.728490
 31
0.0
  0
LWPOLYLINE
  5
152
100
AcDbEntity
  8
Layer_1
 62
7
100
AcDbPolyline
 90
1
 70
1
 10
282.248040
 20
294.404297
 30
0.0
  0
SPLINE
  5
153
100
AcDbEntity
  8
Layer_1
 62
7
100
AcDbSpline
 70
0
 71
3
 72
10
 73
6
 74
4
 40
0.000000
 40
0.000000
 40
0.000000
 40
0.000000
 40
1.581005
 40
3.354085
 40
5.413214
 40
5.413214
 40
5.413214
 40
5.413214
 10
147.300780
 20
244.728490
 30
0.0
 10
147.005045
 20
244.288572
 30
0.0
 10
146.377647
 20
243.355292
 30
0.0
 10
145.921918
 20
241.575432
 30
0.0
 10
145.869803
 20
240.299068
 30
0.0
 10
145.841800
 20
239.613250
 30
0.0
 11
147.300780
 21
244.728490
 31
0.0
 11
146.490236
 21
243.371068
 31
0.0
 11
146.003909
 21
241.665988
 31
0.0
 11
145.841800
 21
239.613250
 31
0.0
  0
SPLINE
  5
154
100
AcDbEntity
  8
Layer_1
 62
7
100
AcDbSpline
 70
0
 71
3
 72
10
 73
6
 74
4
 40
0.000000
 40
0.000000
 40
0.000000
 40
0.000000
 40
1.323478
 40
2.574725
 40
3.800592
 40
3.800592
 40
3.800592
 40
3.800592
 10
145.841800
 20
245.871060
 30
0.0
 10
146.077857
 20
246.244521
 30
0.0
 10
146.537089
 20
246.971061
 30
0.0
 10
147.437725
 20
247.883820
 30
0.0
 10
148.145720
 20
248.312979
 30
0.0
 10
148.496090
 20
248.525360
 30
0.0
 11
145.841800
 21
245.871060
 31
0.0
 11
146.589846
 21
246.962858
 31
0.0
 11
147.474609
 21
247.847624
 31
0.0
 11
148.496090
 21
248.525360
 31
0.0
  0
SPLINE
  5
155
100
AcDbEntity
  8
Layer_1
 62
7
100
AcDbSpline
 70
0
 71
3
 72
13
 73
9
 74
7
 40
0.000000
 40
0.000000
 40
0.000000
 40
0.000000
 40
1.265927
 40
2.622168
 40
4.105854
 40
4.336407
 40
4.583140
 40
4.846513
 40
4.846513
 40
4.846513
 40
4.846513
 10
148.496090
 20
248.525360
 30
0.0
 10
148.880131
 20
248.703330
 30
0.0
 10
149.675611
 20
249.071968
 30
0.0
 10
151.027663
 20
249.342621
 30
0.0
 10
152.051025
 20
249.414108
 30
0.0
 10
152.704702
 20
249.400172
 30
0.0
 10
152.951061
 20
249.382168
 30
0.0
 10
153.119885
 20
249.361784
 30
0.0
 10
153.207050
 20
249.351260
 30
0.0
 11
148.496090
 21
248.525360
 31
0.0
 11
149.664061
 21
249.013638
 31
0.0
 11
150.988281
 21
249.306604
 31
0.0
 11
152.468750
 21
249.404260
 31
0.0
 11
152.699228
 21
249.398371
 31
0.0
 11
152.945328
 21
249.380704
 31
0.0
 11
153.207050
 21
249.351260
 31
0.0
  0
LWPOLYLINE
  5
156
100
AcDbEntity
  8
Layer_1
 62
7
100
AcDbPolyline
 90
6
 70
0
 10
145.841800
 20
239.613250
 30
0.0
 10
145.841800
 20
229.242160
 30
0.0
 10
142.589840
 20
229.242160
 30
0.0
 10
142.589840
 20
248.929660
 30
0.0
 10
145.841800
 20
248.929660
 30
0.0
 10
145.841800
 20
245.871060
 30
0.0
  0
SPLINE
  5
157
100
AcDbEntity
  8
Layer_1
 62
7
100
AcDbSpline
 70
0
 71
3
 72
10
 73
6
 74
4
 40
0.000000
 40
0.000000
 40
0.000000
 40
0.000000
 40
0.280825
 40
0.582457
 40
0.905169
 40
0.905169
 40
0.905169
 40
0.905169
 10
153.207050
 20
249.351260
 30
0.0
 10
153.300218
 20
249.342126
 30
0.0
 10
153.493459
 20
249.323181
 30
0.0
 10
153.792392
 20
249.281574
 30
0.0
 10
153.997522
 20
249.246427
 30
0.0
 10
154.103550
 20
249.228260
 30
0.0
 11
153.207050
 21
249.351260
 31
0.0
 11
153.486350
 21
249.322038
 31
0.0
 11
153.785183
 21
249.281038
 31
0.0
 11
154.103550
 21
249.228260
 31
0.0
  0
SPLINE
  5
158
100
AcDbEntity
  8
Layer_1
 62
7
100
AcDbSpline
 70
0
 71
3
 72
10
 73
6
 74
4
 40
0.000000
 40
0.000000
 40
0.000000
 40
0.000000
 40
2.423606
 40
4.688360
 40
7.023388
 40
7.023388
 40
7.023388
 40
7.023388
 10
168.341800
 20
253.078125
 30
0.0
 10
167.531709
 20
253.021915
 30
0.0
 10
165.964622
 20
252.913179
 30
0.0
 10
163.773615
 20
251.899974
 30
0.0
 10
162.722856
 20
250.769291
 30
0.0
 10
162.189450
 20
250.195313
 30
0.0
 11
168.341800
 21
253.078125
 31
0.0
 11
165.939454
 21
252.757813
 31
0.0
 11
163.888671
 21
251.796875
 31
0.0
 11
162.189450
 21
250.195313
 31
0.0
  0
SPLINE
  5
159
100
AcDbEntity
  8
Layer_1
 62
7
100
AcDbSpline
 70
0
 71
3
 72
13
 73
9
 74
7
 40
0.000000
 40
0.000000
 40
0.000000
 40
0.000000
 40
2.495595
 40
5.221621
 40
8.315881
 40
11.400406
 40
14.120801
 40
16.614709
 40
16.614709
 40
16.614709
 40
16.614709
 10
162.189450
 20
250.195313
 30
0.0
 10
161.729827
 20
249.496089
 30
0.0
 10
160.768143
 20
248.033079
 30
0.0
 10
160.067004
 20
245.308304
 30
0.0
 10
159.844741
 20
242.341152
 30
0.0
 10
160.067025
 20
239.375770
 30
0.0
 10
160.769063
 20
236.657210
 30
0.0
 10
161.729899
 20
235.196623
 30
0.0
 10
162.189450
 20
234.498050
 30
0.0
 11
162.189450
 21
250.195313
 31
0.0
 11
160.929689
 21
248.041016
 31
0.0
 11
160.173832
 21
245.421875
 31
0.0
 11
159.921880
 21
242.337890
 31
0.0
 11
160.173832
 21
239.263672
 31
0.0
 11
160.929689
 21
236.650392
 31
0.0
 11
162.189450
 21
234.498050
 31
0.0
  0
SPLINE
  5
15a
100
AcDbEntity
  8
Layer_1
 62
7
100
AcDbSpline
 70
0
 71
3
 72
13
 73
9
 74
7
 40
0.000000
 40
0.000000
 40
0.000000
 40
0.000000
 40
2.335027
 40
4.599781
 40
7.023387
 40
9.443114
 40
11.697258
 40
14.018108
 40
14.018108
 40
14.018108
 40
14.018108
 10
162.189450
 20
234.498050
 30
0.0
 10
162.722856
 20
233.922027
 30
0.0
 10
163.773615
 20
232.787316
 30
0.0
 10
165.964626
 20
231.804311
 30
0.0
 10
168.340487
 20
231.517708
 30
0.0
 10
170.712902
 20
231.803233
 30
0.0
 10
172.894536
 20
232.786248
 30
0.0
 10
173.932454
 20
233.921930
 30
0.0
 10
174.458980
 20
234.498050
 30
0.0
 11
162.189450
 21
234.498050
 31
0.0
 11
163.888671
 21
232.896489
 31
0.0
 11
165.939454
 21
231.935552
 31
0.0
 11
168.341800
 21
231.615240
 31
0.0
 11
170.740233
 21
231.935552
 31
0.0
 11
172.779293
 21
232.896489
 31
0.0
 11
174.458980
 21
234.498050
 31
0.0
  0
SPLINE
  5
15b
100
AcDbEntity
  8
Layer_1
 62
7
100
AcDbSpline
 70
0
 71
3
 72
13
 73
9
 74
7
 40
0.000000
 40
0.000000
 40
0.000000
 40
0.000000
 40
2.493910
 40
5.214307
 40
8.298832
 40
11.393092
 40
14.119119
 40
16.614717
 40
16.614717
 40
16.614717
 40
16.614717
 10
174.458980
 20
234.498050
 30
0.0
 10
174.918533
 20
235.196623
 30
0.0
 10
175.879372
 20
236.657209
 30
0.0
 10
176.581415
 20
239.375769
 30
0.0
 10
176.803700
 20
242.341152
 30
0.0
 10
176.581435
 20
245.308304
 30
0.0
 10
175.880293
 20
248.033080
 30
0.0
 10
174.918605
 20
249.496090
 30
0.0
 10
174.458980
 20
250.195313
 30
0.0
 11
174.458980
 21
234.498050
 31
0.0
 11
175.718747
 21
236.650392
 31
0.0
 11
176.474607
 21
239.263672
 31
0.0
 11
176.726560
 21
242.337890
 31
0.0
 11
176.474607
 21
245.421875
 31
0.0
 11
175.718747
 21
248.041016
 31
0.0
 11
174.458980
 21
250.195313
 31
0.0
  0
LWPOLYLINE
  5
15c
100
AcDbEntity
  8
Layer_1
 62
7
100
AcDbPolyline
 90
2
 70
0
 10
154.103550
 20
249.228260
 30
0.0
 10
154.121090
 20
245.906250
 30
0.0
  0
SPLINE
  5
15d
100
AcDbEntity
  8
Layer_1
 62
7
100
AcDbSpline
 70
0
 71
3
 72
10
 73
6
 74
4
 40
0.000000
 40
0.000000
 40
0.000000
 40
0.000000
 40
2.320851
 40
4.574995
 40
6.994723
 40
6.994723
 40
6.994723
 40
6.994723
 10
174.458980
 20
250.195313
 30
0.0
 10
173.932455
 20
250.769409
 30
0.0
 10
172.894537
 20
251.901101
 30
0.0
 10
170.712898
 20
252.914098
 30
0.0
 10
169.150615
 20
253.022173
 30
0.0
 10
168.341800
 20
253.078125
 30
0.0
 11
174.458980
 21
250.195313
 31
0.0
 11
172.779293
 21
251.796875
 31
0.0
 11
170.740233
 21
252.757813
 31
0.0
 11
168.341800
 21
253.078125
 31
0.0
  0
SPLINE
  5
15e
100
AcDbEntity
  8
Layer_1
 62
7
100
AcDbSpline
 70
0
 71
3
 72
10
 73
6
 74
4
 40
0.000000
 40
0.000000
 40
0.000000
 40
0.000000
 40
3.458236
 40
6.648907
 40
9.849615
 40
9.849615
 40
9.849615
 40
9.849615
 10
168.341800
 20
255.960938
 30
0.0
 10
169.496501
 20
255.888729
 30
0.0
 10
171.716563
 20
255.749897
 30
0.0
 10
174.838269
 20
254.473783
 30
0.0
 10
176.389291
 20
252.993338
 30
0.0
 10
177.166020
 20
252.251953
 30
0.0
 11
168.341800
 21
255.960938
 31
0.0
 11
171.775393
 21
255.548829
 31
0.0
 11
174.716800
 21
254.312500
 31
0.0
 11
177.166020
 21
252.251953
 31
0.0
  0
SPLINE
  5
15f
100
AcDbEntity
  8
Layer_1
 62
7
100
AcDbSpline
 70
0
 71
3
 72
13
 73
9
 74
7
 40
0.000000
 40
0.000000
 40
0.000000
 40
0.000000
 40
3.300036
 40
6.783482
 40
10.668064
 40
14.544867
 40
18.028312
 40
21.334842
 40
21.334842
 40
21.334842
 40
21.334842
 10
177.166020
 20
252.251953
 30
0.0
 10
177.833414
 20
251.368273
 30
0.0
 10
179.205296
 20
249.551800
 30
0.0
 10
180.258045
 20
246.089443
 30
0.0
 10
180.582871
 20
242.340521
 30
0.0
 10
180.257639
 20
238.591382
 30
0.0
 10
179.203449
 20
235.130473
 30
0.0
 10
177.833263
 20
233.310235
 30
0.0
 10
177.166020
 20
232.423830
 30
0.0
 11
177.166020
 21
252.251953
 31
0.0
 11
179.001953
 21
249.509767
 31
0.0
 11
180.103513
 21
246.205079
 31
0.0
 11
180.470700
 21
242.337890
 31
0.0
 11
180.103513
 21
238.478514
 31
0.0
 11
179.001953
 21
235.173828
 31
0.0
 11
177.166020
 21
232.423830
 31
0.0
  0
SPLINE
  5
160
100
AcDbEntity
  8
Layer_1
 62
7
100
AcDbSpline
 70
0
 71
3
 72
13
 73
9
 74
7
 40
0.000000
 40
0.000000
 40
0.000000
 40
0.000000
 40
3.194431
 40
6.382837
 40
9.840841
 40
13.310482
 40
16.509703
 40
19.713129
 40
19.713129
 40
19.713129
 40
19.713129
 10
177.166020
 20
232.423830
 30
0.0
 10
176.388990
 20
231.683379
 30
0.0
 10
174.836395
 20
230.203873
 30
0.0
 10
171.715519
 20
228.972758
 30
0.0
 10
168.337888
 20
228.607294
 30
0.0
 10
164.956803
 20
228.973076
 30
0.0
 10
161.824619
 20
230.203228
 30
0.0
 10
160.263495
 20
231.683305
 30
0.0
 10
159.482420
 20
232.423830
 30
0.0
 11
177.166020
 21
232.423830
 31
0.0
 11
174.716800
 21
230.373047
 31
0.0
 11
171.775393
 21
229.142577
 31
0.0
 11
168.341800
 21
228.732420
 31
0.0
 11
164.896487
 21
229.142577
 31
0.0
 11
161.943360
 21
230.373047
 31
0.0
 11
159.482420
 21
232.423830
 31
0.0
  0
SPLINE
  5
161
100
AcDbEntity
  8
Layer_1
 62
7
100
AcDbSpline
 70
0
 71
3
 72
13
 73
9
 74
7
 40
0.000000
 40
0.000000
 40
0.000000
 40
0.000000
 40
3.300041
 40
6.783487
 40
10.668065
 40
14.552647
 40
18.036094
 40
21.336133
 40
21.336133
 40
21.336133
 40
21.336133
 10
159.482420
 20
232.423830
 30
0.0
 10
158.815029
 20
233.307511
 30
0.0
 10
157.443157
 20
235.123986
 30
0.0
 10
156.390311
 20
238.586331
 30
0.0
 10
156.065653
 20
242.337892
 30
0.0
 10
156.390311
 20
246.089453
 30
0.0
 10
157.443156
 20
249.551799
 30
0.0
 10
158.815029
 20
251.368272
 30
0.0
 10
159.482420
 20
252.251953
 30
0.0
 11
159.482420
 21
232.423830
 31
0.0
 11
157.646481
 21
235.166019
 31
0.0
 11
156.544918
 21
238.470706
 31
0.0
 11
156.177730
 21
242.337890
 31
0.0
 11
156.544918
 21
246.205079
 31
0.0
 11
157.646481
 21
249.509767
 31
0.0
 11
159.482420
 21
252.251953
 31
0.0
  0
LWPOLYLINE
  5
162
100
AcDbEntity
  8
Layer_1
 62
7
100
AcDbPolyline
 90
1
 70
1
 10
168.341800
 20
253.078125
 30
0.0
  0
LWPOLYLINE
  5
163
100
AcDbEntity
  8
Layer_1
 62
7
100
AcDbPolyline
 90
1
 70
1
 10
168.341800
 20
255.960938
 30
0.0
  0
LWPOLYLINE
  5
164
100
AcDbEntity
  8
Layer_1
 62
7
100
AcDbPolyline
 90
4
 70
1
 10
185.884760
 20
256.593750
 30
0.0
 10
189.119140
 20
256.593750
 30
0.0
 10
189.119140
 20
229.242190
 30
0.0
 10
185.884760
 20
229.242190
 30
0.0
  0
SPLINE
  5
165
100
AcDbEntity
  8
Layer_1
 62
7
100
AcDbSpline
 70
0
 71
3
 72
10
 73
6
 74
4
 40
0.000000
 40
0.000000
 40
0.000000
 40
0.000000
 40
3.209685
 40
6.411164
 40
9.881037
 40
9.881037
 40
9.881037
 40
9.881037
 10
159.482420
 20
252.251953
 30
0.0
 10
160.263195
 20
252.993398
 30
0.0
 10
161.822749
 20
254.474391
 30
0.0
 10
164.955749
 20
255.749787
 30
0.0
 10
167.183245
 20
255.888691
 30
0.0
 10
168.341800
 20
255.960938
 30
0.0
 11
159.482420
 21
252.251953
 31
0.0
 11
161.943360
 21
254.312500
 31
0.0
 11
164.896487
 21
255.548829
 31
0.0
 11
168.341800
 21
255.960938
 31
0.0
  0
LWPOLYLINE
  5
166
100
AcDbEntity
  8
Layer_1
 62
7
100
AcDbPolyline
 90
6
 70
1
 10
196.009760
 20
255.486328
 30
0.0
 10
199.560540
 20
255.486328
 30
0.0
 10
199.560540
 20
232.230470
 30
0.0
 10
212.339840
 20
232.230470
 30
0.0
 10
212.339840
 20
229.242190
 30
0.0
 10
196.009760
 20
229.242190
 30
0.0
  0
ENDSEC
  0
SECTION
  2
OBJECTS
  0
DICTIONARY
  5
C
330
0
100
AcDbDictionary
  3
ACAD_GROUP
350
D
  3
ACAD_MLINESTYLE
350
17
  0
DICTIONARY
  5
D
330
C
100
AcDbDictionary
  0
DICTIONARY
  5
1A
330
C
100
AcDbDictionary
  0
DICTIONARY
  5
17
330
C
100
AcDbDictionary
  3
STANDARD
350
18
  0
DICTIONARY
  5
19
330
C
100
AcDbDictionary
  0
ENDSEC
  0
EOF
