<?xml version="1.0" encoding="UTF-8" standalone="no"?>
<svg
   xmlns:dc="http://purl.org/dc/elements/1.1/"
   xmlns:cc="http://creativecommons.org/ns#"
   xmlns:rdf="http://www.w3.org/1999/02/22-rdf-syntax-ns#"
   xmlns:svg="http://www.w3.org/2000/svg"
   xmlns="http://www.w3.org/2000/svg"
   xmlns:sodipodi="http://sodipodi.sourceforge.net/DTD/sodipodi-0.dtd"
   xmlns:inkscape="http://www.inkscape.org/namespaces/inkscape"
   id="SVGRoot"
   version="1.1"
   viewBox="0 0 35 35"
   height="35cm"
   width="35cm"
   inkscape:version="1.0 (4035a4fb49, 2020-05-01)"
   sodipodi:docname="benchmark_drawing.svg">
  <defs
     id="defs10">
    <rect
       id="rect836"
       height="13.054771"
       width="23.943504"
       y="4.3906181"
       x="5.6199912" />
  </defs>
  <sodipodi:namedview
     id="base"
     pagecolor="#ffffff"
     bordercolor="#666666"
     borderopacity="1.0"
     inkscape:pageopacity="0.0"
     inkscape:pageshadow="2"
     inkscape:zoom="0.451958"
     inkscape:cx="244.31167"
     inkscape:cy="572.52375"
     inkscape:document-units="cm"
     inkscape:current-layer="text834"
     inkscape:document-rotation="0"
     showgrid="false"
     inkscape:window-width="1920"
     inkscape:window-height="1017"
     inkscape:window-x="-8"
     inkscape:window-y="-8"
     inkscape:window-maximized="1" />
  <metadata
     id="metadata13">
    <rdf:RDF>
      <cc:Work
         rdf:about="">
        <dc:format>image/svg+xml</dc:format>
        <dc:type
           rdf:resource="http://purl.org/dc/dcmitype/StillImage" />
        <dc:title></dc:title>
      </cc:Work>
    </rdf:RDF>
  </metadata>
  <g
     inkscape:label="Layer 1"
     inkscape:groupmode="layer"
     id="layer1">
    <rect
       id="rect23"
       width="30"
       height="30"
       x="2.7970238"
       y="2.4190474"
       style="stroke-width:0.126;fill:none;stroke:#000000;stroke-opacity:1;stroke-miterlimit:4;stroke-dasharray:none" />
    <circle
       style="fill:none;stroke:#000000;stroke-width:0.126;stroke-miterlimit:4;stroke-dasharray:none;stroke-opacity:1"
       id="path850"
       cx="17.727081"
       cy="17.386904"
       r="10" />
    <path
       transform="matrix(1.0292612,0,0,0.98845677,-0.32542363,0.16297463)"
       inkscape:transform-center-y="0.050049161"
       inkscape:transform-center-x="-0.4654923"
       d="m 18.908928,22.304339 -5.799446,-2.086898 0.19263,-6.160487 5.918498,-1.720493 3.465202,5.097164 z"
       inkscape:randomized="0"
       inkscape:rounded="0"
       inkscape:flatsided="true"
       sodipodi:arg2="1.916214"
       sodipodi:arg1="1.2878955"
       sodipodi:r2="4.2416639"
       sodipodi:r1="5.2429848"
       sodipodi:cy="17.269764"
       sodipodi:cx="17.445389"
       sodipodi:sides="5"
       id="path9"
       style="fill:#000000;stroke:#000000;stroke-width:0.126;fill-opacity:1"
       sodipodi:type="star" />
    <g
       style="font-style:normal;font-weight:normal;font-size:3.6px;line-height:1.25;font-family:sans-serif;text-align:center;text-anchor:middle;white-space:pre;shape-inside:url(#rect836);fill:#000000;fill-opacity:1;stroke:none"
       id="text834"
       aria-label="YOUR turn To rOlL">
      <path
         id="path840"
         style="font-style:normal;font-weight:normal;font-size:3.6px;line-height:1.25;font-family:sans-serif;text-align:center;text-anchor:middle;white-space:pre;shape-inside:url(#rect836);fill:#000000;fill-opacity:1;stroke:none"
         d="M 5.8531253,4.9513672 H 6.2345706 L 6.962305,6.030664 7.6847659,4.9513672 H 8.0662112 L 7.1380862,6.3259765 V 7.5757812 H 6.7812503 V 6.3259765 Z" />
      <path
         id="path842"
         style="font-style:normal;font-weight:normal;font-size:3.6px;line-height:1.25;font-family:sans-serif;text-align:center;text-anchor:middle;white-space:pre;shape-inside:url(#rect836);fill:#000000;fill-opacity:1;stroke:none"
         d="m 9.2826175,5.1921875 q -0.3867188,0 -0.6152344,0.2882812 -0.2267578,0.2882813 -0.2267578,0.7857422 0,0.4957031 0.2267578,0.7839843 0.2285156,0.2882813 0.6152344,0.2882813 0.3867187,0 0.6117187,-0.2882813 0.2267578,-0.2882812 0.2267578,-0.7839843 0,-0.4974609 -0.2267578,-0.7857422 -0.225,-0.2882812 -0.6117187,-0.2882812 z m 0,-0.2882813 q 0.5519531,0 0.8824215,0.3708985 0.330469,0.3691406 0.330469,0.9914062 0,0.6205078 -0.330469,0.9914062 -0.3304684,0.3691406 -0.8824215,0.3691406 -0.553711,0 -0.8859375,-0.3691406 -0.3304688,-0.3691406 -0.3304688,-0.9914062 0,-0.6222656 0.3304688,-0.9914062 0.3322265,-0.3708985 0.8859375,-0.3708985 z" />
      <path
         id="path844"
         style="font-style:normal;font-weight:normal;font-size:3.6px;line-height:1.25;font-family:sans-serif;text-align:center;text-anchor:middle;white-space:pre;shape-inside:url(#rect836);fill:#000000;fill-opacity:1;stroke:none"
         d="m 11.010547,4.9513672 h 0.356836 v 1.5943359 q 0,0.421875 0.152929,0.6082031 0.15293,0.1845703 0.495704,0.1845703 0.341015,0 0.493945,-0.1845703 0.15293,-0.1863281 0.15293,-0.6082031 V 4.9513672 h 0.356835 v 1.6382812 q 0,0.5132812 -0.254882,0.7751953 -0.253125,0.261914 -0.748828,0.261914 -0.497461,0 -0.752344,-0.261914 -0.253125,-0.2619141 -0.253125,-0.7751953 z" />
      <path
         id="path846"
         style="font-style:normal;font-weight:normal;font-size:3.6px;line-height:1.25;font-family:sans-serif;text-align:center;text-anchor:middle;white-space:pre;shape-inside:url(#rect836);fill:#000000;fill-opacity:1;stroke:none"
         d="m 14.932226,6.3453124 q 0.114258,0.038672 0.221485,0.1652344 0.108984,0.1265625 0.217969,0.3480469 l 0.360351,0.7171875 H 15.350586 L 15.014844,6.902539 Q 14.884766,6.6388671 14.761719,6.5527343 14.64043,6.4666015 14.429492,6.4666015 h -0.386719 v 1.1091797 h -0.355078 v -2.624414 h 0.801563 q 0.45,0 0.671484,0.1880859 0.221484,0.1880859 0.221484,0.5677734 0,0.2478516 -0.116015,0.4113281 -0.114258,0.1634766 -0.333985,0.2267578 z M 14.042773,5.243164 v 0.9316406 h 0.446485 q 0.25664,0 0.386718,-0.1177734 0.131836,-0.1195312 0.131836,-0.3498047 0,-0.2302734 -0.131836,-0.346289 Q 14.745898,5.243164 14.489258,5.243164 Z" />
      <path
         id="path848"
         style="font-style:normal;font-weight:normal;font-size:3.6px;line-height:1.25;font-family:sans-serif;text-align:center;text-anchor:middle;white-space:pre;shape-inside:url(#rect836);fill:#000000;fill-opacity:1;stroke:none"
         d="m 17.642773,5.0480469 v 0.5589843 h 0.666211 v 0.2513672 h -0.666211 v 1.06875 q 0,0.2408203 0.06504,0.309375 0.0668,0.068555 0.268946,0.068555 h 0.332226 v 0.2707032 h -0.332226 q -0.374415,0 -0.516797,-0.1388672 -0.142383,-0.140625 -0.142383,-0.5097656 v -1.06875 H 17.080273 V 5.6070312 h 0.237305 V 5.0480469 Z" />
      <path
         id="path851"
         style="font-style:normal;font-weight:normal;font-size:3.6px;line-height:1.25;font-family:sans-serif;text-align:center;text-anchor:middle;white-space:pre;shape-inside:url(#rect836);fill:#000000;fill-opacity:1;stroke:none"
         d="M 18.702734,6.7988281 V 5.6070312 h 0.323438 v 1.1794922 q 0,0.2794922 0.108984,0.4201172 0.108985,0.1388671 0.326953,0.1388671 0.261914,0 0.413086,-0.1669921 0.15293,-0.1669922 0.15293,-0.4552735 V 5.6070312 h 0.323437 v 1.96875 H 20.028125 V 7.2734374 q -0.117774,0.1792969 -0.274219,0.2671875 -0.154687,0.086133 -0.360351,0.086133 -0.339258,0 -0.515039,-0.2109375 -0.175782,-0.2109375 -0.175782,-0.6169921 z m 0.813867,-1.2392578 z" />
      <path
         id="path853"
         style="font-style:normal;font-weight:normal;font-size:3.6px;line-height:1.25;font-family:sans-serif;text-align:center;text-anchor:middle;white-space:pre;shape-inside:url(#rect836);fill:#000000;fill-opacity:1;stroke:none"
         d="m 22.162109,5.909375 q -0.05449,-0.031641 -0.119531,-0.045703 -0.06328,-0.01582 -0.140625,-0.01582 -0.274219,0 -0.421875,0.1792969 -0.145898,0.1775391 -0.145898,0.5115234 v 1.0371094 h -0.325196 v -1.96875 h 0.325196 v 0.3058594 q 0.101953,-0.1792969 0.265429,-0.2654297 0.163477,-0.087891 0.397266,-0.087891 0.0334,0 0.07383,0.00527 0.04043,0.00352 0.08965,0.012305 z" />
      <path
         id="path855"
         style="font-style:normal;font-weight:normal;font-size:3.6px;line-height:1.25;font-family:sans-serif;text-align:center;text-anchor:middle;white-space:pre;shape-inside:url(#rect836);fill:#000000;fill-opacity:1;stroke:none"
         d="M 24.078125,6.3874999 V 7.5757812 H 23.754688 V 6.3980468 q 0,-0.2794922 -0.108985,-0.4183593 -0.108984,-0.1388672 -0.326953,-0.1388672 -0.261914,0 -0.413086,0.1669922 -0.151172,0.1669921 -0.151172,0.4552734 v 1.1126953 h -0.325195 v -1.96875 h 0.325195 v 0.3058594 q 0.116016,-0.1775391 0.272461,-0.2654297 0.158204,-0.087891 0.363868,-0.087891 0.339257,0 0.513281,0.2109375 0.174023,0.2091797 0.174023,0.6169921 z" />
      <path
         id="path857"
         style="font-style:normal;font-weight:normal;font-size:3.6px;line-height:1.25;font-family:sans-serif;text-align:center;text-anchor:middle;white-space:pre;shape-inside:url(#rect836);fill:#000000;fill-opacity:1;stroke:none"
         d="m 25.523047,4.9513672 h 2.220117 V 5.2501953 H 26.811523 V 7.5757812 H 26.454687 V 5.2501953 h -0.93164 z" />
      <path
         id="path859"
         style="font-style:normal;font-weight:normal;font-size:3.6px;line-height:1.25;font-family:sans-serif;text-align:center;text-anchor:middle;white-space:pre;shape-inside:url(#rect836);fill:#000000;fill-opacity:1;stroke:none"
         d="m 28.224804,5.833789 q -0.260156,0 -0.411328,0.2039063 -0.151172,0.2021484 -0.151172,0.5554687 0,0.3533203 0.149414,0.5572266 0.151172,0.2021484 0.413086,0.2021484 0.258398,0 0.40957,-0.2039063 0.151172,-0.2039062 0.151172,-0.5554687 0,-0.3498047 -0.151172,-0.5537109 Q 28.483202,5.833789 28.224804,5.833789 Z m 0,-0.2742187 q 0.421875,0 0.662695,0.2742187 0.24082,0.2742188 0.24082,0.759375 0,0.4833984 -0.24082,0.759375 -0.24082,0.2742187 -0.662695,0.2742187 -0.423633,0 -0.664453,-0.2742187 -0.239063,-0.2759766 -0.239063,-0.759375 0,-0.4851562 0.239063,-0.759375 0.24082,-0.2742187 0.664453,-0.2742187 z" />
      <path
         id="path861"
         style="font-style:normal;font-weight:normal;font-size:3.6px;line-height:1.25;font-family:sans-serif;text-align:center;text-anchor:middle;white-space:pre;shape-inside:url(#rect836);fill:#000000;fill-opacity:1;stroke:none"
         d="m 15.412109,10.409375 q -0.05449,-0.03164 -0.119531,-0.0457 -0.06328,-0.01582 -0.140625,-0.01582 -0.274219,0 -0.421875,0.179296 -0.145898,0.177539 -0.145898,0.511524 v 1.037109 h -0.325196 v -1.96875 h 0.325196 v 0.30586 q 0.101953,-0.179297 0.265429,-0.26543 0.163477,-0.08789 0.397266,-0.08789 0.0334,0 0.07383,0.0053 0.04043,0.0035 0.08965,0.0123 z" />
      <path
         id="path863"
         style="font-style:normal;font-weight:normal;font-size:3.6px;line-height:1.25;font-family:sans-serif;text-align:center;text-anchor:middle;white-space:pre;shape-inside:url(#rect836);fill:#000000;fill-opacity:1;stroke:none"
         d="m 16.83418,9.6921875 q -0.386719,0 -0.615235,0.2882812 -0.226757,0.2882813 -0.226757,0.7857423 0,0.495703 0.226757,0.783984 0.228516,0.288281 0.615235,0.288281 0.386718,0 0.611718,-0.288281 0.226758,-0.288281 0.226758,-0.783984 0,-0.497461 -0.226758,-0.7857423 -0.225,-0.2882812 -0.611718,-0.2882812 z m 0,-0.2882813 q 0.551953,0 0.882422,0.3708985 0.330468,0.3691403 0.330468,0.9914063 0,0.620508 -0.330468,0.991406 -0.330469,0.369141 -0.882422,0.369141 -0.553711,0 -0.885938,-0.369141 -0.330469,-0.369141 -0.330469,-0.991406 0,-0.622266 0.330469,-0.9914063 0.332227,-0.3708985 0.885938,-0.3708985 z" />
      <path
         id="path865"
         style="font-style:normal;font-weight:normal;font-size:3.6px;line-height:1.25;font-family:sans-serif;text-align:center;text-anchor:middle;white-space:pre;shape-inside:url(#rect836);fill:#000000;fill-opacity:1;stroke:none"
         d="m 18.588476,9.340625 h 0.323438 v 2.735156 h -0.323438 z" />
      <path
         id="path867"
         style="font-style:normal;font-weight:normal;font-size:3.6px;line-height:1.25;font-family:sans-serif;text-align:center;text-anchor:middle;white-space:pre;shape-inside:url(#rect836);fill:#000000;fill-opacity:1;stroke:none"
         d="m 19.600976,9.4513672 h 0.355078 v 2.3255858 h 1.27793 v 0.298828 h -1.633008 z" />
    </g>
  </g>
</svg>
